<?xml version="1.0" encoding="UTF-8" standalone="no"?>
<!DOCTYPE svg PUBLIC "-//W3C//DTD SVG 1.1//EN" "http://www.w3.org/Graphics/SVG/1.1/DTD/svg11.dtd">
<svg width="100%" height="100%" viewBox="0 0 600 180" version="1.1" xmlns="http://www.w3.org/2000/svg" xmlns:xlink="http://www.w3.org/1999/xlink" xml:space="preserve" xmlns:serif="http://www.serif.com/" style="fill-rule:evenodd;clip-rule:evenodd;stroke-linejoin:round;stroke-miterlimit:2;">
    <g transform="matrix(1,0,0,1,-27.0428,-234.9)">
        <path d="M164.3,325.4C141.2,301 124.3,271.6 115.1,239.3C114.3,236.6 112,234.9 109.3,234.9L83.8,234.9C81.1,234.9 78.8,236.8 78,239.3C68.8,271.6 51.9,301 28.8,325.4C26.9,327.3 26.5,330.4 27.8,332.7L40.5,354.8C41.8,357.1 44.5,358.3 47.2,357.7C63.3,353.7 79.9,351.7 96.4,351.7C112.9,351.7 129.7,353.6 145.6,357.7C148.3,358.5 151,357.1 152.3,354.8L165,332.5C166.4,330.2 166.1,327.3 164.3,325.4ZM136.1,344.1L46.5,324.9C46.1,324.7 45.7,324.3 45.9,323.9C45.9,323.7 45.9,323.7 46.1,323.5L107.4,254.7C107.6,254.3 108.2,254.3 108.4,254.7L108.6,254.9L137.1,343C137.3,343.4 136.9,344 136.5,344C136.3,344.1 136.3,344.1 136.1,344.1Z" style="fill:rgb(250,70,22);fill-rule:nonzero;"/>
        <path d="M242.3,255.8L206.7,336.9L223.2,336.9L231.3,317.9L266.9,317.9L275,336.9L291.9,336.9L256.5,255.8L242.3,255.8ZM237.3,303.6L249.2,276.1L261.1,303.6L237.3,303.6ZM320,256.3L304,256.3L304,336.9L361.3,336.9L361.3,322.1L320,322.1L320,256.3ZM455.5,255.8L420,336.9L436.5,336.9L444.6,317.9L480.2,317.9L488.3,336.9L505.2,336.9L469.6,255.8L455.5,255.8ZM450.5,303.6L462.4,276.1L474.3,303.6L450.5,303.6ZM518.6,256.3L534.6,256.3L534.6,336.9L518.6,336.9L518.6,256.3ZM605.3,306.7C616.8,303 623.4,294.2 623.4,282.3C623.4,266.3 611.9,256.3 593.2,256.3L557,256.3L557,336.9L573,336.9L573,309.6L588.6,309.6L608,337.1L627,337.1L605.3,306.7ZM573,271.1L592,271.1C601.8,271.1 607.2,275.3 607.2,283.2C607.2,290.7 601.4,295.3 592,295.3L573,295.3L573,271.1ZM356.5,256.3L356.5,271.7L381.3,271.7L381.3,337.1L397.6,337.1L397.6,271.7L422.4,271.7L422.4,256.3C422.5,256.3 356.5,256.3 356.5,256.3Z" style="fill:rgb(0,87,118);fill-rule:nonzero;"/>
        <path d="M206.8,397.9C206.8,388.5 213.9,380.8 224.1,380.8C234.3,380.8 241.2,388.5 241.2,397.7C241.2,406.9 234.1,414.6 223.9,414.6C213.7,414.8 206.8,407.1 206.8,397.9ZM235.1,397.9C235.1,391.4 230.5,386.2 223.9,386.2C217.3,386.2 212.7,391.4 212.7,397.7C212.7,404 217.3,409.4 223.9,409.4C230.5,409.4 235.1,404.2 235.1,397.9ZM249.9,381.4L255.3,381.4L273,404.1L273,381.4L278.8,381.4L278.8,414.3L274,414.3L255.9,390.8L255.9,414.3L250.1,414.3L250.1,381.4L249.9,381.4ZM288.5,381.4L294.3,381.4L294.3,409.1L311.6,409.1L311.6,414.3L288.5,414.3L288.5,381.4ZM322.9,401.2L309.8,381.2L316.7,381.2L325.9,395.8L335.1,381.2L341.6,381.2L328.7,401L328.7,414.1L322.9,414.1L322.9,401.2ZM364.2,381.4L388.7,381.4L388.7,386.6L370,386.6L370,395.6L386.5,395.6L386.5,400.8L370,400.8L370,414.3L364.2,414.3L364.2,381.4ZM394.8,397.9C394.8,388.5 401.9,380.8 412.1,380.8C422.3,380.8 429.2,388.5 429.2,397.7C429.2,406.9 422.1,414.6 411.9,414.6C401.7,414.6 394.8,407.1 394.8,397.9ZM423.3,397.9C423.3,391.4 418.7,386.2 412.1,386.2C405.6,386.2 400.9,391.4 400.9,397.7C400.9,404 405.5,409.4 412.1,409.4C418.7,409.4 423.3,404.2 423.3,397.9ZM437.4,381.4L452.5,381.4C456.7,381.4 459.8,382.6 461.9,384.7C463.6,386.4 464.6,388.9 464.6,391.8C464.6,397.2 461.3,400.5 456.7,401.8L465.5,414.3L458.6,414.3L450.5,402.8L443.2,402.8L443.2,414.3L437.4,414.3L437.4,381.4ZM452.1,397.5C456.3,397.5 458.8,395.4 458.8,391.9C458.8,388.4 456.3,386.5 452.1,386.5L443.6,386.5L443.6,397.5L452.1,397.5ZM470.4,381.4L476.7,381.4L484.6,405.8L492.7,381.4L497.5,381.4L505.6,405.8L513.5,381.4L519.7,381.4L508.4,414.5L503.4,414.5L495.3,390.9L487.2,414.5L482.2,414.5L470.4,381.4ZM534.4,381L539.8,381L554.2,414.1L548,414.1L544.7,406.2L529.1,406.2L525.6,414.1L519.6,414.1L534.4,381ZM542.7,401.2L536.9,388.1L531.3,401.2L542.7,401.2ZM561.4,381.4L576.1,381.4C580.3,381.4 583.4,382.6 585.5,384.7C587.2,386.4 588.2,388.9 588.2,391.8C588.2,397.2 584.9,400.5 580.3,401.8L589.1,414.3L582.2,414.3L574.1,402.8L567.2,402.8L567.2,414.3L561.4,414.3L561.4,381.4ZM575.7,397.5C579.9,397.5 582.4,395.4 582.4,391.9C582.4,388.4 579.9,386.5 575.7,386.5L567.2,386.5L567.2,397.5L575.7,397.5ZM597.1,381.4L609.4,381.4C619.8,381.4 626.9,388.5 626.9,397.7C626.9,406.9 619.8,414.2 609.4,414.2L597.1,414.2L597.1,381.4ZM602.9,386.6L602.9,408.9L609.4,408.9C616.3,408.9 620.7,404.3 620.7,397.7C620.7,391.4 616.3,386.5 609.4,386.5C609.4,386.6 602.9,386.6 602.9,386.6Z" style="fill:rgb(45,204,211);fill-rule:nonzero;"/>
    </g>
</svg>
