<?xml version="1.0" encoding="UTF-8" standalone="no"?>
<!DOCTYPE svg PUBLIC "-//W3C//DTD SVG 1.1//EN" "http://www.w3.org/Graphics/SVG/1.1/DTD/svg11.dtd">
<svg width="100%" height="100%" viewBox="0 0 135 58" version="1.1" xmlns="http://www.w3.org/2000/svg" xmlns:xlink="http://www.w3.org/1999/xlink" xml:space="preserve" xmlns:serif="http://www.serif.com/" style="fill-rule:evenodd;clip-rule:evenodd;stroke-linejoin:round;stroke-miterlimit:2;">
    <g transform="matrix(1,0,0,1,-82.7,-55.6)">
        <g>
            <rect x="82.7" y="55.6" width="134.6" height="57.7" style="fill:rgb(0,90,154);"/>
        </g>
        <g>
            <g>
                <path d="M176.5,90C173.2,87.7 171,87.3 169.4,88.8C167.9,90.3 168.7,92.9 170.1,94.8C171.5,96.5 173.7,98.2 175.6,97.2C177.4,96.2 177.6,93.8 176.5,90ZM173.9,96.2C173,96.9 170.7,94.7 170.5,94.4C170.3,94.1 168.9,91.2 169.8,90.6C171,89.7 174.2,91.5 174.3,91.6C174.4,91.7 175.1,95.3 173.9,96.2Z" style="fill:white;fill-rule:nonzero;"/>
                <path d="M179.4,87.9C176.5,86.5 174.7,86.6 173.5,86.8C173.4,86.8 173.4,86.9 173.4,86.9C173.4,86.9 173.5,86.9 173.5,87C175,87.6 176.5,88.3 177.6,89.3C178.1,90.6 178.4,92.2 178.5,93.9L178.5,94C178.5,94 178.6,94 178.6,93.9C179.2,92.8 179.8,91.1 179.4,87.9Z" style="fill:rgb(175,223,249);fill-rule:nonzero;"/>
                <path d="M181.8,86.2C180.6,85.5 178.6,85.4 177.2,85.8C177.1,85.8 177.1,85.9 177.1,85.9L177.2,86C178.9,86.4 179.8,86.8 180.5,87.2C180.6,88.1 180.8,88.9 180.6,90.7L180.6,90.8C180.6,90.8 180.7,90.8 180.7,90.7C181.6,89.5 182.1,87.5 181.8,86.2Z" style="fill:white;fill-rule:nonzero;"/>
                <circle cx="184.1" cy="84.5" r="2.8" style="fill:none;"/>
            </g>
            <g>
                <path d="M187,93.5C183.9,95.9 182.7,97.9 183.6,100C184.5,101.9 187.3,101.9 189.4,101.2C191.5,100.5 193.8,98.8 193.4,96.8C193.1,94.5 191,93.5 187,93.5ZM192.1,97.8C192.5,98.8 189.6,100.4 189.3,100.5C188.9,100.6 185.7,101 185.4,100C185,98.5 187.7,96.1 187.8,96C187.9,95.9 191.5,96.4 192.1,97.8Z" style="fill:white;fill-rule:nonzero;"/>
                <path d="M185.9,90C183.7,92.3 183.2,94.2 183.1,95.3C183.1,95.4 183.1,95.4 183.2,95.4C183.2,95.4 183.3,95.4 183.3,95.3C184.3,94 185.5,92.9 186.7,92.1C188.1,92 189.8,92.2 191.3,92.7C191.4,92.7 191.4,92.8 191.4,92.7C191.5,92.7 191.4,92.6 191.3,92.6C190.5,91.7 189,90.6 185.9,90Z" style="fill:rgb(175,223,249);fill-rule:nonzero;"/>
                <path d="M184.9,87.2C183.8,88.1 183.2,90 183.1,91.4C183.1,91.5 183.1,91.6 183.2,91.5L183.3,91.4C184.2,89.9 184.8,89.2 185.5,88.6C186.4,88.7 187.2,88.9 188.9,89.5C189,89.5 189,89.6 189,89.5C189,89.5 189,89.4 188.9,89.4C188.1,88.4 186.3,87.3 184.9,87.2Z" style="fill:white;fill-rule:nonzero;"/>
            </g>
            <g>
                <path d="M193.5,84.5C194.8,88.2 196.4,90 198.6,89.7C200.6,89.4 201.5,86.8 201.6,84.5C201.5,82.2 200.7,79.6 198.6,79.3C196.4,79 194.8,80.8 193.5,84.5ZM199.1,81C200.2,80.9 200.8,84.1 200.8,84.5C200.8,84.9 200.2,88 199.1,88C197.6,87.9 196,84.6 196,84.5C196.1,84.4 197.6,81.1 199.1,81Z" style="fill:white;fill-rule:nonzero;"/>
                <path d="M189.8,84.5C191.3,87.3 192.9,88.4 194,88.9C194.1,89 194.1,89 194.1,88.9C194.1,88.9 194.1,88.8 194,88.8C193.1,87.4 192.4,86 192,84.6C192.4,83.2 193.1,81.8 194,80.4L194.1,80.3C194.1,80.2 194,80.3 194,80.3C193,80.6 191.4,81.7 189.8,84.5Z" style="fill:rgb(175,223,249);fill-rule:nonzero;"/>
                <path d="M186.9,84.5C187.4,85.8 189,87.1 190.3,87.6C190.4,87.7 190.4,87.7 190.4,87.6C190.4,87.6 190.4,87.5 190.3,87.5C189.1,86.2 188.7,85.4 188.3,84.6C188.7,83.8 189.1,83 190.3,81.7L190.4,81.6L190.3,81.6C189,81.9 187.4,83.2 186.9,84.5Z" style="fill:white;fill-rule:nonzero;"/>
            </g>
            <g>
                <path d="M187,75.5C191,75.4 193.1,74.4 193.5,72.2C193.9,70.2 191.6,68.5 189.5,67.8C187.4,67.1 184.5,67.1 183.7,69C182.7,71.1 183.8,73.1 187,75.5ZM185.4,69C185.7,68 188.9,68.3 189.3,68.5C189.7,68.6 192.5,70.2 192.1,71.2C191.6,72.7 188,73.1 187.8,73C187.6,73 185,70.5 185.4,69Z" style="fill:white;fill-rule:nonzero;"/>
                <path d="M185.9,79C189,78.4 190.5,77.3 191.3,76.4L191.4,76.3L191.3,76.3C189.7,76.7 188.1,77 186.7,76.9C185.5,76.2 184.3,75 183.3,73.7L183.2,73.6C183.1,73.6 183.1,73.7 183.1,73.7C183.2,74.9 183.6,76.7 185.9,79Z" style="fill:rgb(175,223,249);fill-rule:nonzero;"/>
                <path d="M184.9,81.8C186.3,81.7 188,80.6 188.8,79.5L188.9,79.4L188.8,79.4C187.2,80.1 186.2,80.3 185.4,80.3C184.7,79.7 184.2,79.1 183.2,77.5L183.1,77.4L183,77.5C183.2,79 183.9,80.9 184.9,81.8Z" style="fill:white;fill-rule:nonzero;"/>
            </g>
            <g>
                <path d="M176.5,79C177.6,75.2 177.4,72.9 175.4,71.8C173.6,70.8 171.3,72.5 169.9,74.2C168.7,76 167.7,78.7 169.2,80.2C170.9,81.7 173.2,81.2 176.5,79ZM169.8,78.4C168.9,77.8 170.3,74.9 170.5,74.6C170.7,74.3 173.1,72 173.9,72.8C175.1,73.7 174.4,77.3 174.3,77.4C174.2,77.6 171.1,79.3 169.8,78.4Z" style="fill:white;fill-rule:nonzero;"/>
                <path d="M179.4,81.1C179.8,77.9 179.2,76.1 178.6,75.1L178.5,75L178.5,75.1C178.4,76.8 178.1,78.4 177.6,79.7C176.5,80.6 175,81.4 173.5,82L173.4,82.1L173.5,82.2C174.7,82.4 176.5,82.5 179.4,81.1Z" style="fill:rgb(175,223,249);fill-rule:nonzero;"/>
                <path d="M181.8,82.8C182.2,81.5 181.6,79.4 180.8,78.4L180.7,78.3L180.7,78.4C180.8,80.1 180.7,81.1 180.6,81.9C179.9,82.3 179,82.7 177.3,83.1C177.2,83.1 177.2,83.1 177.2,83.2C177.2,83.2 177.2,83.3 177.3,83.3C178.5,83.7 180.6,83.6 181.8,82.8Z" style="fill:white;fill-rule:nonzero;"/>
            </g>
        </g>
        <g>
            <path d="M126.6,89.7C125.7,87.7 121.1,76.9 121.1,76.9L117.1,76.9L125.9,97.5L127.3,97.5L136,77L132,77C132,77 127.4,87.8 126.6,89.7ZM144.1,94L144.1,77L140.2,77L140.2,97.6L154.9,97.6L154.9,94L144.1,94Z" style="fill:white;fill-rule:nonzero;"/>
            <path d="M110,77L107.3,77L98.6,97.6L102.7,97.6C102.7,97.6 104.4,93.4 104.7,92.8L113.1,92.8C113.4,93.4 115.3,97.6 115.3,97.6L119.4,97.6L110,77ZM111.4,89.2L106.2,89.2C106.6,88.1 108.1,84.8 108.8,83.2C109.3,84.7 110.9,88.1 111.4,89.2Z" style="fill:white;fill-rule:nonzero;"/>
        </g>
    </g>
</svg>
