<svg id="Layer_1" data-name="Layer 1" xmlns="http://www.w3.org/2000/svg" viewBox="0 0 268 70"><defs><style>.cls-1,.cls-2{fill:#263186;}.cls-1{fill-rule:evenodd;}</style></defs><path class="cls-1" d="M36.6,0c6.7-.3,14.7,1.1,16.2,5.5,2.4,7.3-9.9,17.9-20.7,23.1-2.6,1.3-4.2,1.6-4.9,1.5s-.7-.6-.5-1A17.1,17.1,0,0,1,31.2,25c12-8.8,16-15.3,13.7-17.9s-7.6-2.8-14-2.8c-1.7,0-6.2.4-6.7-1.1S29.9.3,36.6,0Z"/><path class="cls-1" d="M21.6,33.2c5.6-.3,12.3.6,16.2,3.2a5.7,5.7,0,0,1,2.4,6.4C38,50.6,29.8,60,11.5,67.2,5.7,69.5,1.2,70.4.2,69.8s2-5.8,2.9-7.5A128.6,128.6,0,0,1,13.2,46.5c1.3-1.8,3.3-5,5.1-4.7s-.2,3.6-1.5,5.7-8,13.4-6,14C15,62.8,35,49.2,32,41.6c-1.3-3.5-10-3.8-15.4-3.8-2.5,0-8,.5-8.3-1.2S16.6,33.5,21.6,33.2Z"/><path class="cls-1" d="M65.1,24c3.4.6,6.2,1,6.8,2.3s-3,1.5-4.8,1.6c-8.9.1-14.3.3-14.6,3s3.8,7.1,8,12,8,9,6.7,13.2-8.6,6.3-15.3,6.3a84.9,84.9,0,0,1-15-1.4c-3.2-.5-2.8-2-1.9-2.4s6.4-.6,10.1-.8,12.1-.1,13.5-2.2-2.5-6.9-6.3-11.5S42.1,32.5,44.9,28.2,59.2,23,65.1,24Z"/><path class="cls-2" d="M252.5,30.7c-12,0-18.9,2.7-21.5,14.6l-3.4,15.9c-.2,1,.5,1.4,1.3,1.4h6.5l1.9-9.2h20.3l-1.9,9.2h6.5a1.8,1.8,0,0,0,1.9-1.4l3.4-15.9C270,33.2,262.5,30.7,252.5,30.7Zm7.1,13.6-.4,1.9c-.2.7-.5,2.3-2.4,2.3H238.4l.9-4.2c1.3-6.1,5.2-8.3,12.2-8.3S260.8,38.5,259.6,44.3Z"/><path class="cls-2" d="M90.1,46.3c-2.4,11.7,3.6,16.3,15,16.3H123l.6-2.7c.3-1.6-.7-2.2-2.8-2.2H105.4c-5.8,0-7.6-5-6.3-11.1S104.3,36,110,36h14.8c2.1,0,3.3-.6,3.7-2.1l.6-2.8H110.7C99.1,31.1,92,37.4,90.1,46.3Z"/><path class="cls-2" d="M223.8,31.3H217L216,36h8.1l.7-3.7C224.9,31.8,224.5,31.3,223.8,31.3Z"/><polygon class="cls-2" points="210.4 62.6 218.5 62.6 223.6 38.4 215.5 38.4 210.4 62.6"/><path class="cls-2" d="M213.5,34.1l.7-3H177.4c-1.7,0-2.7.5-2.9,1.7l-.7,3.2h13.6l-5.7,26.6h6.1c1.7,0,2.7-.7,3-2.3L196,36h15.1C212.7,36,213.3,35.3,213.5,34.1Z"/><path class="cls-2" d="M154,30.7c-12,0-18.9,2.7-21.5,14.6l-3.4,15.9c-.2,1,.5,1.4,1.3,1.4h6.5l1.9-9.2h20.3l-1.9,9.2h6.5a1.8,1.8,0,0,0,1.9-1.4L169,45.3C171.4,33.2,164,30.7,154,30.7Zm7.1,13.6-.4,1.9c-.2.7-.5,2.3-2.4,2.3H139.9l.9-4.2C142.1,38.2,146,36,153,36S162.3,38.5,161.1,44.3Z"/></svg>