<?xml version="1.0" encoding="UTF-8" standalone="no"?>
<!-- Created with Inkscape (http://www.inkscape.org/) -->
<svg
   xmlns:svg="http://www.w3.org/2000/svg"
   xmlns="http://www.w3.org/2000/svg"
   version="1.0"
   width="445"
   height="95"
   viewBox="0 0 425.483 88.612"
   id="Ebene_1"
   xml:space="preserve"><defs
     id="defs16" /><g
     transform="matrix(0.9940324,0,0,0.9940324,1.2695562,0.2642347)"
     id="g2393"><path
       d="M 63.655,2.761 L 43.995,2.761 L 43.995,36.054 L 43.782,36.054 C 41.303,32.764 38.433,30.408 35.174,28.983 C 31.915,27.776 28.284,27.174 24.282,27.174 C 16.454,27.357 10.468,30.467 6.323,36.506 C 2.108,42.434 0,49.185 0,56.76 C 0,65.616 2.249,73.044 6.749,79.046 C 11.105,85.157 17.499,88.304 25.93,88.487 C 30.571,88.415 34.661,87.251 38.203,84.995 C 41.71,82.761 44.101,79.995 45.377,76.699 L 45.642,76.699 L 45.642,87.137 L 63.656,87.137 L 63.656,2.761 L 63.655,2.761 z M 20.229,57.199 C 20.229,53.168 21.292,49.761 23.418,46.976 C 25.367,44.191 28.273,42.762 32.137,42.688 C 35.824,42.762 38.712,44.19 40.803,46.976 C 42.93,49.76 44.03,53.442 44.1,58.022 C 44.03,62.346 42.86,65.864 40.591,68.576 C 38.358,71.432 35.539,72.899 32.137,72.972 C 28.416,72.972 25.545,71.469 23.524,68.465 C 21.328,65.681 20.229,61.926 20.229,57.199 z"
       id="path3"
       style="fill:#cf0038;fill-rule:evenodd" /><path
       d="M 72.606,84.903 C 80.862,87.374 89.276,88.61 97.85,88.61 C 107.725,88.69 116.317,86.713 123.626,82.676 C 131.054,78.601 134.885,71.168 135.122,60.377 C 135.122,56.422 134.582,53.106 133.503,50.429 C 132.385,47.713 130.847,45.455 128.888,43.656 C 127.01,41.859 124.871,40.341 122.474,39.102 C 120.116,37.903 117.62,36.924 114.981,36.164 C 112.543,35.365 110.126,34.586 107.727,33.827 C 105.289,33.108 103.091,32.409 101.133,31.729 C 99.175,31.011 97.616,30.112 96.457,29.033 C 95.218,27.994 94.599,26.616 94.599,24.897 C 94.76,21.22 96.646,18.923 100.256,18.005 C 101.901,17.526 103.586,17.206 105.313,17.046 C 107.038,16.965 108.602,16.925 110.007,16.925 C 116.668,16.925 123.047,18.224 129.147,20.824 L 130.591,3.172 C 124.54,1.137 117.262,0.08 108.757,0 C 104.446,0 100.155,0.36 95.883,1.08 C 91.571,1.919 87.597,3.318 83.958,5.276 C 80.398,7.234 77.511,9.93 75.295,13.367 C 72.962,16.803 71.796,21.099 71.796,26.253 C 71.874,33.804 74.051,39.338 78.325,42.856 C 80.282,44.654 82.479,46.152 84.916,47.351 C 87.312,48.59 89.729,49.629 92.164,50.467 C 94.801,51.268 97.297,52.047 99.655,52.805 C 102.01,53.526 104.128,54.304 106.005,55.143 C 108.003,55.942 109.56,57 110.677,58.321 C 111.756,59.638 112.296,61.317 112.296,63.354 C 112.215,66.711 110.774,68.95 107.972,70.068 C 105.289,71.227 102.007,71.766 98.122,71.686 C 88.474,71.526 80.606,69.647 74.522,66.048 L 72.606,84.903 z"
       id="path5"
       style="fill:#343a90;fill-rule:evenodd" /><path
       d="M 140.933,87.137 L 163.024,87.137 L 163.024,57.18 L 171.843,57.18 C 194.198,56.94 205.536,47.745 205.855,29.597 C 205.937,10.767 193.267,1.393 167.85,1.473 L 140.933,1.473 L 140.933,87.137 z M 163.023,17.662 L 169.134,17.662 C 173.29,17.662 176.781,18.442 179.609,20.001 C 182.311,21.802 183.704,24.862 183.786,29.183 C 183.704,33.542 182.311,36.623 179.609,38.424 C 176.782,40.224 173.291,41.084 169.134,41.003 L 163.023,41.003 L 163.023,17.662 z"
       id="path7"
       style="fill:#363a90;fill-rule:evenodd" /><path
       d="M 198.726,87.137 L 221.175,87.137 L 227.73,68.863 L 258.88,68.863 L 265.028,87.137 L 289.274,87.137 L 257.315,1.473 L 230.223,1.473 L 198.726,87.137 z M 255.382,52.662 L 233.927,52.662 L 244.952,19.134 L 245.253,19.134 L 255.382,52.662 z"
       id="path9"
       style="fill:#363a90;fill-rule:evenodd" /><path
       d="M 358.292,67.249 C 352.017,70.126 345.104,71.604 337.552,71.685 C 329.304,71.685 322.683,69.266 317.687,64.427 C 312.537,59.669 309.921,53.072 309.843,44.635 C 309.921,36.477 312.304,29.859 316.989,24.781 C 321.596,19.624 327.85,17.005 335.753,16.925 C 343.226,16.925 350.448,18.934 357.419,22.95 L 359.22,4.434 C 351.284,1.638 343.075,0.16 334.599,0 C 320.661,0 309.32,3.675 300.57,11.024 C 291.705,18.492 287.195,29.696 287.039,44.635 C 287.35,60.61 292.537,71.954 302.602,78.665 C 307.288,82.101 312.436,84.597 318.049,86.153 C 323.625,87.791 329.18,88.61 334.715,88.61 C 340.328,88.53 345.09,88.112 349,87.353 C 352.871,86.717 356.316,85.979 359.336,85.143 L 358.292,67.249 z"
       id="path11"
       style="fill:#363a90;fill-rule:evenodd" /><polygon
       points="365.708,87.137 425.483,87.137 425.483,70.948 387.774,70.948 387.774,51.534 422.175,51.534 422.175,35.357 387.774,35.357 387.774,17.662 424.147,17.662 424.147,1.473 365.708,1.473 365.708,87.137 "
       id="polygon13"
       style="fill:#363a90;fill-rule:evenodd" /></g></svg>