<?xml version="1.0" encoding="UTF-8" standalone="no"?>
<!-- Created with Inkscape (http://www.inkscape.org/) -->

<svg
   xmlns:dc="http://purl.org/dc/elements/1.1/"
   xmlns:cc="http://creativecommons.org/ns#"
   xmlns:rdf="http://www.w3.org/1999/02/22-rdf-syntax-ns#"
   xmlns:svg="http://www.w3.org/2000/svg"
   xmlns="http://www.w3.org/2000/svg"
   version="1.1"
   width="715.74799"
   height="455.66928"
   id="svg10967">
  <defs
     id="defs10969">
    <clipPath
       id="clipPath10649">
      <path
         d="m 0,0 595.276,0 0,793.701 L 0,793.701 0,0 z"
         id="path10651" />
    </clipPath>
  </defs>
  <metadata
     id="metadata10972">
    <rdf:RDF>
      <cc:Work
         rdf:about="">
        <dc:format>image/svg+xml</dc:format>
        <dc:type
           rdf:resource="http://purl.org/dc/dcmitype/StillImage" />
        <dc:title></dc:title>
      </cc:Work>
    </rdf:RDF>
  </metadata>
  <g
     transform="translate(-22.242952,-297.63761)"
     id="layer1">
    <g
       transform="matrix(6.4018123,0,0,-6.4018123,-155.6821,5218.0359)"
       id="g10645">
      <g
         clip-path="url(#clipPath10649)"
         id="g10647">
        <g
           transform="translate(36.4184,699.821)"
           id="g10653">
          <path
             d="m 0,0 c -0.2,-0.376 -0.479,-0.7 -0.841,-0.973 -0.363,-0.274 -0.801,-0.49 -1.315,-0.646 -0.513,-0.158 -1.075,-0.238 -1.693,-0.238 -0.641,0 -1.224,0.082 -1.744,0.247 -0.518,0.162 -0.963,0.397 -1.33,0.696 -0.37,0.3 -0.653,0.657 -0.853,1.068 -0.197,0.41 -0.296,0.855 -0.296,1.333 0,0.411 0.063,0.772 0.184,1.079 0.123,0.307 0.281,0.573 0.473,0.799 0.19,0.225 0.41,0.405 0.655,0.532 0.246,0.132 0.485,0.225 0.718,0.279 l -1.044,1.046 c 0,0.342 0.118,0.651 0.357,0.925 0.239,0.272 0.516,0.458 0.83,0.554 -0.424,0.231 -0.783,0.564 -1.077,0.996 -0.294,0.43 -0.443,0.953 -0.443,1.569 0,0.45 0.086,0.874 0.257,1.263 0.171,0.391 0.411,0.721 0.72,0.996 0.307,0.272 0.672,0.486 1.095,0.646 0.424,0.158 0.895,0.236 1.416,0.236 0.246,0 0.472,-0.013 0.677,-0.041 0.206,-0.028 0.39,-0.061 0.555,-0.104 0.165,-0.039 0.359,-0.076 0.585,-0.102 0.226,-0.028 0.454,-0.041 0.686,-0.041 0.222,0 0.463,0.035 0.731,0.104 0.266,0.067 0.475,0.149 0.627,0.244 L 0.277,10.93 c -0.122,-0.084 -0.302,-0.153 -0.533,-0.207 -0.234,-0.054 -0.439,-0.082 -0.616,-0.082 0.108,-0.123 0.205,-0.309 0.287,-0.553 0.082,-0.247 0.123,-0.521 0.123,-0.822 0,-0.41 -0.077,-0.806 -0.235,-1.191 C -0.855,7.693 -1.084,7.358 -1.385,7.07 -1.687,6.783 -2.05,6.554 -2.474,6.381 -2.897,6.214 -3.384,6.128 -3.931,6.128 -4.3,6.128 -4.583,6.093 -4.782,6.024 -4.982,5.957 -5.079,5.819 -5.079,5.613 c 0,-0.039 0.015,-0.095 0.05,-0.164 0.033,-0.069 0.106,-0.123 0.214,-0.164 L -2.308,4.403 C -1.501,4.115 -0.866,3.726 -0.401,3.231 0.064,2.741 0.297,2.071 0.297,1.221 0.297,0.785 0.2,0.376 0,0 m -1.823,2.202 c -0.24,0.275 -0.595,0.48 -1.059,0.619 l -1.6,0.471 C -5.057,3.292 -5.515,3.121 -5.856,2.778 -6.2,2.438 -6.37,2.012 -6.37,1.505 c 0,-0.45 0.204,-0.865 0.615,-1.241 0.41,-0.376 1.033,-0.564 1.869,-0.564 0.409,0 0.766,0.045 1.066,0.142 0.301,0.095 0.552,0.221 0.75,0.37 0.197,0.151 0.348,0.32 0.452,0.504 0.102,0.185 0.154,0.365 0.154,0.544 0,0.357 -0.121,0.67 -0.359,0.942 m -0.832,8.201 c -0.329,0.32 -0.754,0.482 -1.273,0.482 -0.521,0 -0.947,-0.162 -1.282,-0.482 -0.336,-0.324 -0.505,-0.696 -0.505,-1.119 0,-0.437 0.169,-0.815 0.505,-1.129 0.335,-0.315 0.761,-0.473 1.282,-0.473 0.232,0 0.456,0.041 0.667,0.123 0.211,0.084 0.399,0.197 0.565,0.339 0.164,0.143 0.295,0.316 0.39,0.515 0.095,0.197 0.143,0.406 0.143,0.625 0,0.423 -0.164,0.795 -0.492,1.119"
             id="path10655"
             style="fill:#f1471d;fill-opacity:1;fill-rule:nonzero;stroke:none" />
        </g>
        <g
           transform="translate(47.8613,707.9396)"
           id="g10657">
          <path
             d="m 0,0 -1.047,-1.046 -5.595,0 c 0.014,-0.288 0.091,-0.595 0.234,-0.914 0.145,-0.323 0.353,-0.623 0.627,-0.902 0.272,-0.281 0.611,-0.508 1.014,-0.687 0.404,-0.177 0.879,-0.266 1.424,-0.266 0.603,0 1.123,0.071 1.561,0.214 0.437,0.145 0.819,0.326 1.148,0.547 l -0.205,-1.809 c -0.329,-0.175 -0.712,-0.32 -1.148,-0.431 -0.439,-0.107 -0.972,-0.164 -1.6,-0.164 -0.658,0 -1.288,0.115 -1.889,0.35 -0.601,0.232 -1.133,0.565 -1.591,0.997 -0.458,0.43 -0.824,0.944 -1.098,1.539 -0.272,0.596 -0.409,1.256 -0.409,1.982 0,0.793 0.139,1.496 0.42,2.105 0.281,0.608 0.64,1.118 1.078,1.528 0.436,0.413 0.934,0.722 1.487,0.934 0.554,0.214 1.099,0.32 1.632,0.32 0.642,0 1.213,-0.102 1.712,-0.311 0.5,-0.204 0.919,-0.476 1.263,-0.809 C -0.641,2.84 -0.38,2.46 -0.203,2.036 -0.025,1.61 0.064,1.187 0.064,0.761 0.064,0.458 0.042,0.205 0,0 M -1.968,1.424 C -2.065,1.656 -2.201,1.868 -2.379,2.058 -2.556,2.252 -2.773,2.406 -3.025,2.522 -3.278,2.639 -3.557,2.697 -3.857,2.697 -4.142,2.697 -4.435,2.643 -4.73,2.533 -5.024,2.423 -5.295,2.269 -5.54,2.071 -5.785,1.87 -5.998,1.638 -6.174,1.37 -6.354,1.102 -6.469,0.806 -6.524,0.475 l 4.678,0 c 0.014,0.057 0.021,0.139 0.021,0.249 0,0.234 -0.048,0.465 -0.143,0.7"
             id="path10659"
             style="fill:#f1471d;fill-opacity:1;fill-rule:nonzero;stroke:none" />
        </g>
        <g
           transform="translate(57.1199,710.5074)"
           id="g10661">
          <path
             d="m 0,0 -2.957,0 0,-4.948 c 0,-0.531 0.135,-0.905 0.4,-1.117 0.268,-0.212 0.646,-0.318 1.141,-0.318 0.327,0 0.608,0.039 0.841,0.119 l -0.164,-1.478 c -0.123,-0.07 -0.277,-0.113 -0.463,-0.134 -0.183,-0.022 -0.372,-0.033 -0.564,-0.033 -0.424,0 -0.821,0.061 -1.189,0.175 -0.369,0.117 -0.69,0.294 -0.965,0.536 -0.272,0.24 -0.489,0.53 -0.646,0.871 -0.157,0.344 -0.235,0.74 -0.235,1.191 l 0,5.136 -1.828,0 0,1.502 1.828,0 0,1.889 1.844,0.964 0,-2.853 3.287,0 L 0,0 z"
             id="path10663"
             style="fill:#f1471d;fill-opacity:1;fill-rule:nonzero;stroke:none" />
        </g>
        <g
           transform="translate(68.9301,714.6011)"
           id="g10665">
          <path
             d="m 0,0 c -0.082,-0.13 -0.182,-0.251 -0.296,-0.37 -0.118,-0.114 -0.24,-0.214 -0.37,-0.296 -0.131,-0.082 -0.244,-0.123 -0.339,-0.123 -0.097,0 -0.21,0.041 -0.338,0.123 -0.131,0.082 -0.254,0.182 -0.37,0.296 -0.118,0.119 -0.215,0.24 -0.299,0.37 -0.082,0.132 -0.121,0.244 -0.121,0.339 0,0.096 0.039,0.208 0.121,0.34 0.084,0.129 0.181,0.255 0.299,0.369 0.116,0.117 0.239,0.214 0.37,0.299 0.128,0.082 0.241,0.123 0.338,0.123 0.095,0 0.208,-0.041 0.339,-0.123 0.13,-0.085 0.252,-0.182 0.37,-0.299 C -0.182,0.934 -0.082,0.808 0,0.679 0.082,0.547 0.124,0.435 0.124,0.339 0.124,0.244 0.082,0.132 0,0 m -1.954,-2.596 1.887,0 0,-9.299 -1.887,0 0,9.299 z"
             id="path10667"
             style="fill:#f1471d;fill-opacity:1;fill-rule:nonzero;stroke:none" />
        </g>
        <g
           transform="translate(78.6556,710.5074)"
           id="g10669">
          <path
             d="m 0,0 -2.957,0 0,-4.948 c 0,-0.531 0.135,-0.905 0.401,-1.117 0.268,-0.212 0.646,-0.318 1.139,-0.318 0.329,0 0.61,0.039 0.841,0.119 l -0.163,-1.478 c -0.125,-0.07 -0.277,-0.113 -0.463,-0.134 -0.183,-0.022 -0.372,-0.033 -0.565,-0.033 -0.421,0 -0.82,0.061 -1.19,0.175 -0.367,0.117 -0.688,0.294 -0.963,0.536 -0.274,0.24 -0.488,0.53 -0.646,0.871 -0.158,0.344 -0.235,0.74 -0.235,1.191 l 0,5.136 -1.827,0 0,1.502 1.827,0 0,1.889 1.844,0.964 0,-2.853 3.285,0 L 0,0 z"
             id="path10671"
             style="fill:#f1471d;fill-opacity:1;fill-rule:nonzero;stroke:none" />
        </g>
        <g
           transform="translate(93.3591,710.0513)"
           id="g10673">
          <path
             d="m 0,0 c -0.084,0.026 -0.184,0.048 -0.298,0.06 -0.117,0.016 -0.245,0.022 -0.381,0.022 -0.302,0 -0.598,-0.043 -0.892,-0.123 -0.294,-0.082 -0.562,-0.227 -0.802,-0.43 -0.238,-0.206 -0.428,-0.487 -0.575,-0.841 -0.143,-0.357 -0.214,-0.802 -0.214,-1.336 l 0,-4.697 -1.866,0 0,9.303 1.866,0 0,-1.891 0.021,0 c 0.178,0.67 0.504,1.174 0.984,1.507 0.48,0.337 1.048,0.505 1.703,0.505 0.138,0 0.294,-0.017 0.473,-0.041 C 0.197,2.01 0.341,1.976 0.45,1.937 L 0,0 z"
             id="path10675"
             style="fill:#f1471d;fill-opacity:1;fill-rule:nonzero;stroke:none" />
        </g>
        <g
           transform="translate(98.9248,714.6011)"
           id="g10677">
          <path
             d="m 0,0 c -0.084,-0.13 -0.181,-0.251 -0.298,-0.37 -0.117,-0.114 -0.24,-0.214 -0.37,-0.296 -0.13,-0.082 -0.242,-0.123 -0.337,-0.123 -0.097,0 -0.21,0.041 -0.339,0.123 -0.132,0.082 -0.253,0.182 -0.37,0.296 -0.117,0.119 -0.216,0.24 -0.298,0.37 -0.083,0.132 -0.124,0.244 -0.124,0.339 0,0.096 0.041,0.208 0.124,0.34 0.082,0.129 0.181,0.255 0.298,0.369 0.117,0.117 0.238,0.214 0.37,0.299 0.129,0.082 0.242,0.123 0.339,0.123 0.095,0 0.207,-0.041 0.337,-0.123 0.13,-0.085 0.253,-0.182 0.37,-0.299 C -0.181,0.934 -0.084,0.808 0,0.679 0.082,0.547 0.123,0.435 0.123,0.339 0.123,0.244 0.082,0.132 0,0 m -1.956,-2.596 1.889,0 0,-9.299 -1.889,0 0,9.299 z"
             id="path10679"
             style="fill:#f1471d;fill-opacity:1;fill-rule:nonzero;stroke:none" />
        </g>
        <g
           transform="translate(110.6119,699.821)"
           id="g10681">
          <path
             d="m 0,0 c -0.199,-0.376 -0.478,-0.7 -0.841,-0.973 -0.363,-0.274 -0.802,-0.49 -1.314,-0.646 -0.512,-0.158 -1.079,-0.238 -1.695,-0.238 -0.642,0 -1.223,0.082 -1.74,0.247 -0.52,0.162 -0.964,0.397 -1.333,0.696 -0.37,0.3 -0.653,0.657 -0.852,1.068 -0.197,0.41 -0.296,0.855 -0.296,1.333 0,0.411 0.061,0.772 0.182,1.079 0.125,0.307 0.281,0.573 0.475,0.799 0.19,0.225 0.409,0.405 0.655,0.532 0.244,0.132 0.484,0.225 0.715,0.279 l -1.044,1.046 c 0,0.342 0.119,0.651 0.359,0.925 0.24,0.272 0.517,0.458 0.83,0.554 -0.425,0.231 -0.784,0.564 -1.078,0.996 -0.294,0.43 -0.441,0.953 -0.441,1.569 0,0.45 0.086,0.874 0.255,1.263 0.173,0.391 0.413,0.721 0.72,0.996 0.309,0.272 0.672,0.486 1.098,0.646 0.423,0.158 0.895,0.236 1.415,0.236 0.245,0 0.472,-0.013 0.677,-0.041 0.205,-0.028 0.389,-0.061 0.555,-0.104 0.165,-0.039 0.359,-0.076 0.584,-0.102 0.225,-0.028 0.456,-0.041 0.687,-0.041 0.219,0 0.463,0.035 0.731,0.104 0.264,0.067 0.476,0.149 0.625,0.244 L 0.277,10.93 c -0.121,-0.084 -0.301,-0.153 -0.534,-0.207 -0.231,-0.054 -0.439,-0.082 -0.616,-0.082 0.11,-0.123 0.207,-0.309 0.289,-0.553 0.082,-0.247 0.121,-0.521 0.121,-0.822 0,-0.41 -0.077,-0.806 -0.233,-1.191 C -0.854,7.693 -1.085,7.358 -1.385,7.07 -1.686,6.783 -2.049,6.554 -2.473,6.381 -2.896,6.214 -3.385,6.128 -3.93,6.128 -4.301,6.128 -4.585,6.093 -4.783,6.024 -4.982,5.957 -5.079,5.819 -5.079,5.613 c 0,-0.039 0.017,-0.095 0.051,-0.164 0.035,-0.069 0.106,-0.123 0.214,-0.164 L -2.309,4.403 C -1.5,4.115 -0.865,3.726 -0.4,3.231 0.067,2.741 0.298,2.071 0.298,1.221 0.298,0.785 0.199,0.376 0,0 m -1.824,2.202 c -0.238,0.275 -0.592,0.48 -1.057,0.619 l -1.602,0.471 c -0.575,0 -1.033,-0.171 -1.375,-0.514 -0.341,-0.34 -0.512,-0.766 -0.512,-1.273 0,-0.45 0.203,-0.865 0.616,-1.241 0.409,-0.376 1.033,-0.564 1.868,-0.564 0.408,0 0.765,0.045 1.067,0.142 0.301,0.095 0.549,0.221 0.748,0.37 0.199,0.151 0.348,0.32 0.454,0.504 0.1,0.185 0.152,0.365 0.152,0.544 0,0.357 -0.119,0.67 -0.359,0.942 m -0.833,8.201 c -0.326,0.32 -0.752,0.482 -1.273,0.482 -0.518,0 -0.946,-0.162 -1.279,-0.482 -0.337,-0.324 -0.504,-0.696 -0.504,-1.119 0,-0.437 0.167,-0.815 0.504,-1.129 0.333,-0.315 0.761,-0.473 1.279,-0.473 0.234,0 0.459,0.041 0.67,0.123 0.212,0.084 0.4,0.197 0.565,0.339 0.162,0.143 0.294,0.316 0.389,0.515 0.095,0.197 0.145,0.406 0.145,0.625 0,0.423 -0.165,0.795 -0.496,1.119"
             id="path10683"
             style="fill:#f1471d;fill-opacity:1;fill-rule:nonzero;stroke:none" />
        </g>
        <g
           transform="translate(120.4573,702.7067)"
           id="g10685">
          <path
             d="M 0,0 0,5.979 C 0,6.225 -0.037,6.467 -0.115,6.698 -0.188,6.932 -0.313,7.139 -0.491,7.325 -0.672,7.509 -0.897,7.656 -1.169,7.766 -1.444,7.876 -1.77,7.93 -2.155,7.93 -2.522,7.93 -2.847,7.876 -3.128,7.766 -3.409,7.656 -3.642,7.509 -3.826,7.325 -4.009,7.139 -4.15,6.932 -4.245,6.698 -4.34,6.467 -4.39,6.225 -4.39,5.979 l 0,-5.979 -1.867,0 0,14.616 1.867,0 0,-6.275 0.022,0 c 0.233,0.354 0.557,0.642 0.975,0.86 0.417,0.219 0.994,0.329 1.733,0.329 0.504,0 0.973,-0.08 1.405,-0.238 C 0.175,9.134 0.549,8.912 0.86,8.626 1.178,8.339 1.422,7.984 1.599,7.567 1.777,7.15 1.868,6.681 1.868,6.16 L 1.868,0 0,0 z"
             id="path10687"
             style="fill:#f1471d;fill-opacity:1;fill-rule:nonzero;stroke:none" />
        </g>
        <g
           transform="translate(131.9282,710.5074)"
           id="g10689">
          <path
             d="m 0,0 -2.955,0 0,-4.948 c 0,-0.531 0.132,-0.905 0.4,-1.117 0.266,-0.212 0.649,-0.318 1.141,-0.318 0.329,0 0.61,0.039 0.841,0.119 l -0.164,-1.478 c -0.123,-0.07 -0.279,-0.113 -0.463,-0.134 -0.185,-0.022 -0.374,-0.033 -0.564,-0.033 -0.423,0 -0.821,0.061 -1.191,0.175 -0.369,0.117 -0.689,0.294 -0.964,0.536 -0.272,0.24 -0.486,0.53 -0.644,0.871 -0.16,0.344 -0.238,0.74 -0.238,1.191 l 0,5.136 -1.826,0 0,1.502 1.826,0 0,1.889 1.846,0.964 0,-2.853 3.286,0 L 0,0 z"
             id="path10691"
             style="fill:#f1471d;fill-opacity:1;fill-rule:nonzero;stroke:none" />
        </g>
        <g
           transform="translate(127.1579,753.0024)"
           id="g10693">
          <path
             d="m 0,0 c -2.268,0 -4.116,-1.847 -4.116,-4.119 l 0,-20.889 c 0,-2.267 1.848,-4.114 4.116,-4.114 2.272,0 4.119,1.847 4.119,4.114 l 0,20.889 C 4.119,-1.847 2.272,0 0,0"
             id="path10695"
             style="fill:#f1471d;fill-opacity:1;fill-rule:nonzero;stroke:none" />
        </g>
        <g
           transform="translate(71.7693,746.439)"
           id="g10697">
          <path
             d="M 0,0 C 0.352,1.009 0.475,2.214 0.359,3.486 L 0.356,3.523 0.35,3.557 c -1.933,10.458 -11.06,18.051 -21.702,18.051 -12.168,0 -22.067,-9.9 -22.067,-22.07 0,-3.045 0.615,-6 1.825,-8.779 4.783,-11.183 17.779,-16.393 28.966,-11.603 2.086,0.892 3.056,3.318 2.163,5.404 -0.893,2.086 -3.317,3.058 -5.403,2.164 -1.523,-0.65 -3.134,-1.004 -4.784,-1.097 -0.313,-0.018 -0.319,-0.018 -0.552,-0.018 -7.627,0 -13.983,6.303 -13.983,13.929 0,7.63 6.208,13.835 13.835,13.835 5.666,0 10.836,-3.557 12.888,-8.855 0.028,-0.116 0.045,-0.227 0.045,-0.32 0,-0.125 -0.025,-0.228 -0.071,-0.3 -0.091,-0.14 -0.289,-0.209 -0.46,-0.242 l -13.829,0 c -2.272,0 -4.118,-1.846 -4.118,-4.118 0,-2.268 1.846,-4.115 4.118,-4.115 l 16.492,0.001 0.044,0 C -3.303,-4.31 -0.902,-2.596 0,0"
             id="path10699"
             style="fill:#f1471d;fill-opacity:1;fill-rule:nonzero;stroke:none" />
        </g>
        <g
           transform="translate(128.2613,755.6351)"
           id="g10701">
          <path
             d="m 0,0 c 1.819,1.356 2.195,3.942 0.838,5.762 -1.89,2.531 -4.453,4.46 -7.414,5.577 -7.626,2.872 -16.349,-0.344 -20.288,-7.48 l -0.009,-0.013 -0.018,-0.008 -11.198,-22.297 c -1.758,-4.221 -6.619,-6.227 -10.84,-4.475 -1.066,0.443 -2.014,1.09 -2.812,1.926 -0.862,0.948 -1.506,2.108 -1.844,3.341 -0.293,1.061 -0.981,1.946 -1.937,2.488 -0.957,0.543 -2.067,0.683 -3.125,0.389 -1.061,-0.294 -1.944,-0.98 -2.486,-1.935 -0.545,-0.957 -0.682,-2.069 -0.39,-3.127 0.42,-1.529 1.059,-2.987 1.899,-4.335 0.098,-0.196 0.197,-0.374 0.31,-0.533 0.418,-0.603 0.887,-1.186 1.392,-1.737 -0.005,0.007 0.871,-0.918 1.282,-1.287 0,0 0.619,-0.477 0.626,-0.469 1.196,-0.948 2.51,-1.736 3.93,-2.326 3.801,-1.576 8.032,-1.671 11.907,-0.267 3.604,1.306 6.611,3.811 8.563,7.079 0.048,-0.026 11.989,23.673 12.03,23.753 2.041,3.529 6.285,5.045 10.101,3.609 1.49,-0.564 2.777,-1.529 3.721,-2.797 0.657,-0.881 1.618,-1.453 2.706,-1.611 C -1.967,-0.933 -0.881,-0.659 0,0"
             id="path10703"
             style="fill:#f68b1a;fill-opacity:1;fill-rule:nonzero;stroke:none" />
        </g>
        <g
           transform="translate(138.8554,712.4928)"
           id="g10705">
          <path
             d="m 0,0 c -0.126,-0.29 -0.298,-0.541 -0.518,-0.753 -0.219,-0.212 -0.474,-0.376 -0.764,-0.494 -0.29,-0.118 -0.604,-0.176 -0.941,-0.176 -0.346,0 -0.663,0.058 -0.953,0.176 -0.29,0.118 -0.545,0.282 -0.765,0.494 -0.22,0.212 -0.39,0.463 -0.512,0.753 -0.121,0.29 -0.182,0.612 -0.182,0.965 0,0.353 0.061,0.674 0.182,0.964 0.122,0.29 0.292,0.541 0.512,0.753 0.22,0.212 0.475,0.377 0.765,0.494 0.29,0.118 0.607,0.177 0.953,0.177 0.337,0 0.651,-0.059 0.941,-0.177 0.29,-0.117 0.545,-0.282 0.764,-0.494 C -0.298,2.47 -0.126,2.219 0,1.929 0.125,1.639 0.188,1.318 0.188,0.965 0.188,0.612 0.125,0.29 0,0 M -0.494,1.741 C -0.588,1.976 -0.72,2.176 -0.888,2.341 -1.057,2.506 -1.255,2.635 -1.482,2.729 -1.71,2.823 -1.957,2.87 -2.223,2.87 -2.498,2.87 -2.749,2.823 -2.976,2.729 -3.204,2.635 -3.404,2.506 -3.576,2.341 -3.749,2.176 -3.882,1.976 -3.976,1.741 -4.07,1.506 -4.117,1.247 -4.117,0.965 c 0,-0.283 0.047,-0.541 0.141,-0.777 0.094,-0.235 0.227,-0.435 0.4,-0.6 0.172,-0.164 0.372,-0.294 0.6,-0.388 0.227,-0.094 0.478,-0.141 0.753,-0.141 0.266,0 0.513,0.047 0.741,0.141 0.227,0.094 0.425,0.224 0.594,0.388 0.168,0.165 0.3,0.365 0.394,0.6 0.094,0.236 0.141,0.494 0.141,0.777 0,0.282 -0.047,0.541 -0.141,0.776 m -0.953,-2.259 -0.765,1.165 -0.353,0 0,-1.153 -0.564,0 0,2.941 0.917,0 c 0.118,0 0.236,-0.022 0.353,-0.065 0.118,-0.043 0.222,-0.102 0.312,-0.176 0.09,-0.075 0.163,-0.167 0.218,-0.276 0.054,-0.11 0.082,-0.236 0.082,-0.377 0,-0.173 -0.039,-0.322 -0.118,-0.447 C -1.443,0.969 -1.545,0.871 -1.67,0.8 l 0.694,-1 -0.471,-0.318 z m -0.847,2.459 -0.271,0 0,-0.8 0.271,0 c 0.322,0 0.482,0.133 0.482,0.4 0,0.267 -0.16,0.4 -0.482,0.4"
             id="path10707"
             style="fill:#f1471d;fill-opacity:1;fill-rule:nonzero;stroke:none" />
        </g>
      </g>
    </g>
  </g>
</svg>
