<?xml version="1.0" encoding="UTF-8" standalone="no"?>
<!DOCTYPE svg PUBLIC "-//W3C//DTD SVG 1.1//EN" "http://www.w3.org/Graphics/SVG/1.1/DTD/svg11.dtd">
<svg width="100%" height="100%" viewBox="0 0 753 222" version="1.1" xmlns="http://www.w3.org/2000/svg" xmlns:xlink="http://www.w3.org/1999/xlink" xml:space="preserve" xmlns:serif="http://www.serif.com/" style="fill-rule:evenodd;clip-rule:evenodd;stroke-linejoin:round;stroke-miterlimit:2;">
    <g transform="matrix(1,0,0,1,-20.0854,-37.5254)">
        <path id="rect3346" d="M482.297,37.527C474.794,37.44 467.967,41.853 464.966,48.731L381.984,231.704C378.903,237.826 379.411,245.132 383.326,250.757C387.242,256.382 393.934,259.428 400.745,258.664C407.557,257.901 413.404,253.463 415.976,247.11L498.987,64.137C501.686,58.387 501.282,51.661 497.907,46.28C494.532,40.899 488.649,37.6 482.297,37.527ZM59.775,41.466C38.257,41.466 20.356,57.296 20.356,78.813L156.703,78.813C163.438,78.908 169.706,75.381 173.101,69.564C176.496,63.747 176.496,56.532 173.101,50.715C169.706,44.898 163.438,41.37 156.703,41.466L59.775,41.466ZM214.125,41.466C207.39,41.37 201.122,44.898 197.727,50.715C194.332,56.532 194.332,63.747 197.727,69.564C201.122,75.381 207.39,78.908 214.125,78.813L373.523,78.813C380.257,78.908 386.526,75.381 389.921,69.564C393.316,63.747 393.316,56.532 389.921,50.715C386.526,44.898 380.257,41.37 373.523,41.466L214.125,41.466ZM656.692,41.466C635.175,41.466 617.273,57.296 617.273,78.813L753.621,78.813C760.355,78.908 766.623,75.381 770.018,69.564C773.413,63.747 773.413,56.532 770.018,50.715C766.623,44.898 760.355,41.37 753.621,41.466L656.692,41.466ZM39.409,84.649C28.736,84.649 20.093,93.321 20.093,103.994C20.093,114.666 28.736,123.338 39.409,123.338C50.082,123.338 58.754,114.666 58.754,103.994C58.754,93.321 50.082,84.649 39.409,84.649ZM293.809,84.649C283.136,84.649 274.464,93.321 274.464,103.994C274.464,114.666 283.136,123.338 293.809,123.338C304.482,123.338 313.154,114.666 313.154,103.994C313.154,93.321 304.482,84.649 293.809,84.649ZM507.915,84.649C497.242,84.649 488.57,93.321 488.57,103.994C488.57,114.666 497.242,123.338 507.915,123.338C518.588,123.338 527.26,114.666 527.26,103.994C527.26,93.321 518.588,84.649 507.915,84.649ZM636.618,84.649C625.945,84.649 617.273,93.321 617.273,103.994C617.273,114.666 625.945,123.338 636.618,123.338C647.291,123.338 655.963,114.666 655.963,103.994C655.963,93.321 647.291,84.649 636.618,84.649ZM525.188,126.606C518.93,126.618 513.087,129.758 509.637,134.98C506.187,140.202 505.588,146.812 508.032,152.574L546.255,246.439C550.138,255.995 561.033,260.593 570.589,256.71C580.145,252.826 584.743,241.931 580.859,232.375L542.607,138.482C539.804,131.311 532.887,126.596 525.188,126.606ZM293.517,129.203C283.216,129.364 274.99,137.837 275.135,148.139L275.135,239.145C275.04,245.879 278.568,252.147 284.385,255.542C290.202,258.937 297.417,258.937 303.234,255.542C309.05,252.147 312.578,245.879 312.483,239.145L312.483,148.139C312.554,143.091 310.571,138.227 306.998,134.659C303.424,131.092 298.566,129.124 293.517,129.203ZM39.03,130.604C32.295,130.508 26.027,134.036 22.632,139.853C19.237,145.67 19.237,152.885 22.632,158.702C26.027,164.518 32.295,168.046 39.03,167.951L156.703,167.951C163.438,168.046 169.706,164.518 173.101,158.702C176.496,152.885 176.496,145.67 173.101,139.853C169.706,134.036 163.438,130.508 156.703,130.604L39.03,130.604ZM617.273,130.604C617.273,152.121 635.175,167.951 656.692,167.951L772.586,167.951C772.586,146.433 754.684,130.604 733.167,130.604L617.273,130.604ZM39.409,173.787C28.736,173.787 20.093,182.458 20.093,193.131C20.093,203.804 28.736,212.447 39.409,212.447C50.082,212.447 58.754,203.804 58.754,193.131C58.754,182.458 50.082,173.787 39.409,173.787ZM753.241,173.787C742.568,173.787 733.926,182.458 733.926,193.131C733.926,203.804 742.568,212.447 753.241,212.447C763.914,212.447 772.586,203.804 772.586,193.131C772.586,182.458 763.914,173.787 753.241,173.787ZM22.369,217.903C22.369,239.421 40.271,255.251 61.788,255.251L158.716,255.251C165.451,255.346 171.719,251.818 175.114,246.001C178.509,240.185 178.509,232.969 175.114,227.153C171.719,221.336 165.451,217.808 158.716,217.903L22.369,217.903ZM636.239,217.903C629.504,217.808 623.236,221.336 619.841,227.153C616.446,232.969 616.446,240.185 619.841,246.001C623.236,251.818 629.504,255.346 636.239,255.251L733.167,255.251C754.685,255.251 772.586,239.421 772.586,217.903L636.239,217.903Z" style="fill:rgb(42,57,179);fill-rule:nonzero;"/>
    </g>
</svg>
