<?xml version="1.0" encoding="UTF-8" standalone="no"?>
<!DOCTYPE svg PUBLIC "-//W3C//DTD SVG 1.1//EN" "http://www.w3.org/Graphics/SVG/1.1/DTD/svg11.dtd">
<svg width="100%" height="100%" viewBox="0 0 563 115" version="1.1" xmlns="http://www.w3.org/2000/svg" xmlns:xlink="http://www.w3.org/1999/xlink" xml:space="preserve" xmlns:serif="http://www.serif.com/" style="fill-rule:evenodd;clip-rule:evenodd;stroke-linejoin:round;stroke-miterlimit:2;">
    <g transform="matrix(1,0,0,1,-8.218,-10.913)">
        <path d="M149.625,44.427L179.317,44.427L190.269,86.125L191.009,86.125C191.535,82.652 192.063,78.965 193.011,75.602L201.956,44.427L231.341,44.427L244.394,123.824L216.492,123.824L212.591,80.336L212.069,80.336C211.544,82.967 211.015,85.703 210.173,88.231L198.696,123.825L181.849,123.825L171.53,90.23C170.687,86.861 169.947,83.703 169.735,80.335L168.787,80.335C168.58,83.495 168.37,86.757 168.053,89.911L164.68,123.823L136.778,123.823L149.625,44.427Z" style="fill:rgb(172,172,172);fill-rule:nonzero;"/>
        <path d="M287.099,95.078L283.731,81.072C282.889,77.699 282.36,74.226 281.831,70.857L280.783,70.857L275.515,95.078L287.099,95.078ZM268.037,123.824L237.503,123.824L265.088,44.427L296.998,44.427L325.325,123.824L294.784,123.824L292.157,113.922L270.354,113.922L268.037,123.824Z" style="fill:rgb(172,172,172);fill-rule:nonzero;"/>
        <path d="M403.763,77.07C403.546,90.023 403.546,100.867 394.176,110.972C385.75,120.138 372.804,125.087 360.483,125.087C336.267,125.087 316.683,110.134 316.683,84.651C316.683,58.75 335.737,43.163 360.695,43.163C374.489,43.163 393.446,50.009 399.653,63.592L372.697,73.493C370.487,69.491 366.382,67.384 361.746,67.384C351.433,67.384 345.741,76.229 345.741,85.809C345.741,94.545 351.217,102.762 360.587,102.762C365.119,102.762 370.909,100.655 372.275,95.813L359.221,95.813L359.221,77.07L403.763,77.07Z" style="fill:rgb(172,172,172);fill-rule:nonzero;"/>
        <path d="M405.917,44.427L433.616,44.427L459.516,88.444L460.355,88.444C459.201,81.809 457.935,74.964 457.935,68.226L457.935,44.427L485.52,44.427L485.52,123.824L457.935,123.824L432.56,82.127L431.719,82.127C432.663,87.598 433.507,92.76 433.507,98.029L433.507,123.824L405.917,123.824L405.917,44.427Z" style="fill:rgb(172,172,172);fill-rule:nonzero;"/>
        <path d="M532.228,95.078L528.855,81.072C528.014,77.699 527.488,74.226 526.958,70.857L525.907,70.857L520.642,95.078L532.228,95.078ZM513.168,123.824L482.632,123.824L510.216,44.427L542.123,44.427L570.448,123.824L539.912,123.824L537.28,113.922L515.485,113.922L513.168,123.824Z" style="fill:rgb(172,172,172);fill-rule:nonzero;"/>
        <path d="M92.769,123.902L122.686,123.906L93.875,44.642L71.974,44.638L67.949,55.669L92.769,123.902Z" style="fill-rule:nonzero;"/>
        <path d="M72.479,10.913C64.452,10.913 57.946,17.417 57.946,25.449C57.946,33.471 64.452,39.98 72.479,39.98C80.506,39.98 87.01,33.471 87.01,25.448C87.01,17.417 80.506,10.913 72.479,10.913" style="fill:rgb(226,46,47);fill-rule:nonzero;"/>
        <path d="M8.218,123.902L52.816,123.898L30.511,62.672L8.218,123.902Z" style="fill-rule:nonzero;"/>
        <path d="M57.875,123.902L87.792,123.906L58.974,44.642L37.076,44.638L33.056,55.669L57.875,123.902Z" style="fill-rule:nonzero;"/>
    </g>
</svg>
