<?xml version="1.0" encoding="UTF-8" standalone="no"?>
<!DOCTYPE svg PUBLIC "-//W3C//DTD SVG 1.1//EN" "http://www.w3.org/Graphics/SVG/1.1/DTD/svg11.dtd">
<svg width="100%" height="100%" viewBox="0 0 600 224" version="1.1" xmlns="http://www.w3.org/2000/svg" xmlns:xlink="http://www.w3.org/1999/xlink" xml:space="preserve" xmlns:serif="http://www.serif.com/" style="fill-rule:evenodd;clip-rule:evenodd;stroke-linejoin:round;stroke-miterlimit:2;">
    <g transform="matrix(1,0,0,1,-20,-199.3)">
        <path d="M373,394.4C375.4,399 382.7,406.1 392.2,406.1C400.7,406.1 408.6,400.9 408.6,390.9C408.6,369.9 368.6,382.3 368.6,353.6C368.6,338.9 378.8,328 396.7,328C405,328 410.3,331 415.5,332.7C413.7,335.9 411.8,342.2 411.4,344.7L409.4,344.7C407.7,339.3 402.1,334.2 394.5,334.2C387.9,334.2 380.1,338.4 380.1,348.4C380.1,370.4 420.1,356.9 420.1,385.5C420.1,398.4 408.4,412.3 389.6,412.3C379.3,412.3 372.5,409.4 367.7,406.7C369.1,403.8 370.9,397.7 370.9,394.4L373,394.4Z" style="fill:rgb(22,21,25);fill-rule:nonzero;"/>
        <path d="M466.8,328C486.4,328 508,339.3 508,370.2C508,401 486.5,412.4 466.8,412.4C447.1,412.4 425.6,401.1 425.6,370.2C425.6,339.3 447.1,328 466.8,328M466.8,406.9C486.8,406.9 493,389.1 493,370.1C493,351.1 486.7,333.4 466.8,333.4C446.8,333.4 440.5,351.2 440.5,370.1C440.5,389.1 446.8,406.9 466.8,406.9" style="fill:rgb(22,21,25);fill-rule:nonzero;"/>
        <path d="M554.4,296.5C551.7,294.8 548.5,294 545.1,294C535.1,294 531.2,302.1 531.2,310.9C531.2,315 532.2,323.8 533.2,330.7C539,330.7 544.9,330.5 550.7,330.5C550.5,331.7 550.3,332.9 550.3,333.9C550.3,335.1 550.5,336.3 550.7,337.3C544.9,337.1 539,336.8 533.2,336.8C533.2,361.3 533.2,385.7 533.9,410.6C531.5,410.1 529,409.8 526.6,409.8C524.2,409.8 521.7,410.1 519.2,410.6C520.7,385.7 520.7,361.5 520.7,336.8C516.6,336.8 512.6,337.1 508.5,337.3C508.7,336.3 508.8,335.1 508.8,333.9C508.8,332.9 508.6,331.7 508.5,330.5C512.6,330.5 516.8,330.7 520.7,330.7C520.7,317.5 526.5,298.7 535.4,289.7C539.5,285.6 546.2,281.9 552.7,281.9C553.7,281.9 555.1,282.1 556.1,282.4C555.9,287 555.4,291.6 555.4,295.9L554.4,296.5Z" style="fill:rgb(22,21,25);fill-rule:nonzero;"/>
        <path d="M583.5,307L584.4,307C583.7,315.5 583.4,323.8 583,332.1C585.4,332.1 593.2,331.9 601,331.6C600.8,332.8 600.8,334 600.8,335.1C600.8,336.3 600.8,337.5 601,338.7C595.1,338.4 587.1,338.4 583,338.4C582.7,340.1 581.8,366.7 581.8,381.4C581.8,394.1 582.1,407 595.5,407C597.4,407 600.9,406.5 603.1,405.8L603.1,409.9C599.2,411.3 594.3,412.5 590,412.5C575.9,412.5 569.2,404.5 569.2,391.3C569.2,378.9 570.2,363.7 570.4,338.5C567,338.5 563.3,338.5 558.9,338.8C559.1,337.5 559.3,336.3 559.3,334.9C559.3,333.7 559.1,332.7 558.9,331.5C564,331.9 567.7,332 570.1,332C569.9,327.6 569.8,320.3 569.4,313L583.5,307Z" style="fill:rgb(22,21,25);fill-rule:nonzero;"/>
        <clipPath id="_clip1">
            <path d="M477.5,231.4C476,232.4 462.2,243.6 455,248.8C446.4,254.9 438.5,255.1 437.6,253C436.7,251 443.5,239.5 443.5,239.5C441.3,239.3 437,242.6 432.9,245.9C428.9,249.1 425.2,252.4 423.5,252.3C420.2,252.3 414.7,241.7 413.7,240.6C412.7,239.5 410.2,237 408.6,239.5C407,242 394.7,256.4 392.3,259.1C389.9,261.8 389.2,257.1 388,255.2C386.8,253.2 384,249.1 383.5,253.9C383,258.7 370.9,274.6 365.6,275.6C360.3,276.6 340,266 328.6,262.5C316.7,258.8 304.8,258.7 301.6,258.7C298.5,258.6 293.9,255.1 293.1,259.1C292.2,263.1 299.4,264.9 299.4,264.9C299.4,264.9 307.4,264.7 310.4,263.7C312,263.1 321.3,264.4 331.7,267.3C345.2,271.1 361.9,281.3 364.2,283.1C367.8,286.1 376.4,293.6 399,292.7C437.6,288.9 453.8,268.6 464.8,258.9C476.7,248.5 490.9,233.6 498.8,231.2C503.4,229.8 507.9,228.7 510.5,229C510.5,229 515.8,230.4 515.5,229.8C515.2,229.2 513.1,226.4 508.1,225.4C503.2,224.4 487.4,228.4 487.4,228.4C487.4,228.4 491.3,226.1 494,225.2L493.4,225.2C490.8,225.2 485,226.8 477.5,231.4"/>
        </clipPath>
        <g clip-path="url(#_clip1)">
            <path d="M289.6,224.6L292.6,302.1L518.4,293.6L515.4,216L289.6,224.6Z" style="fill:url(#_Linear2);fill-rule:nonzero;"/>
        </g>
        <clipPath id="_clip3">
            <path d="M467.7,231.5C466,233 449.6,251.5 444.9,256.3C440.2,261.1 435.2,249.4 432.9,245.7C429.8,240.7 424,259.6 419.6,260.1C416.6,260.4 406.2,248 404.3,246.4C402.4,244.8 399.8,240.9 398.4,248.3C397,255.4 390,272.1 387.4,273.5C384.8,274.9 372.8,268.2 370.7,267.2C368.5,266.2 370,282.9 367.1,283.1L364.3,282.8C364.3,282.8 369.4,296.5 402.1,292.4C425.5,289.5 439.5,282.9 461,262.7C480.5,244.4 493.5,234.1 493.5,234.1L483.8,238.8C476.9,241.8 474,234.8 472.3,231.9C471.6,230.6 470.9,230.2 470.2,230.2C469.1,230.2 468.3,230.9 467.7,231.5"/>
        </clipPath>
        <g clip-path="url(#_clip3)">
            <path d="M485.4,199.3L348.2,234.2L372,327.3L509.1,292.4L485.4,199.3Z" style="fill:url(#_Radial4);fill-rule:nonzero;"/>
        </g>
        <g opacity="0.75">
            <g>
                <g>
                    <g opacity="0.2">
                        <g>
                            <g>
                                <clipPath id="_clip5">
                                    <path d="M387,303.6C380.1,303.6 373,303.8 366,304.4C349.1,306.2 351.3,309 350,309.7C349.2,310.1 339.9,312 328.4,312.2C319.4,312.3 310.3,312 308,311.7C303.8,311.1 294.8,310.5 294.8,310.5C294.8,310.5 291.5,310.5 291.4,311C291.4,311.2 291.9,311.4 293.1,311.8C296.3,312.7 298.1,312.7 300.1,312.6C301,312.6 301.9,312.5 303,312.6C306.4,312.8 319.6,313.7 329.4,313.5C338.8,313.3 351.6,311.5 358.4,312.2C365.2,312.9 385.9,315.2 390.5,316.5C395.1,317.8 393.4,316.4 392.6,315.7C391.7,315 388.1,313.7 392.2,314.2C396.3,314.7 417.7,317.6 421.1,318.1C424.4,318.6 424.1,317.7 423.8,317.3C423.5,316.9 418.1,313.4 420.4,313.1C421.5,313 426.8,313.5 432.3,314C438.3,314.6 444.5,315.1 446,314.8C446,314.8 431.1,312.3 429.9,311.6C428.7,311 434.5,310.2 446,311.2C455.6,311.9 475.4,313.8 477.3,313.9C479.3,314 488.9,314.3 489.7,314.2C490.5,314.1 485,313.9 485,313.9C485,313.9 501.6,313.5 504.3,312.8C507,312.1 506,311.1 505.7,310.9C505.4,310.7 502.9,311.6 502.9,311.6C501.4,311.9 497.2,312.1 492.7,312.1C485,312.2 461.7,309.3 444.1,307.6C431.6,306.3 410.5,303.7 387.4,303.7L387,303.7L387,303.6Z"/>
                                </clipPath>
                                <g clip-path="url(#_clip5)">
                                    <path d="M372,350.1L267.1,309.2L426.2,272.1L531,313L372,350.1Z" style="fill:url(#_Linear6);fill-rule:nonzero;"/>
                                </g>
                            </g>
                        </g>
                    </g>
                    <g opacity="0.2">
                        <g>
                            <g>
                                <clipPath id="_clip7">
                                    <path d="M367.3,304.4C348.5,305.9 350.1,309.8 350.1,309.8L352.9,309.9C356.3,310.2 368.8,314.5 369.4,314C370.1,313.5 372.7,310.6 375.8,310.7C378.9,310.8 398.6,314.8 405.8,316.7C408.7,317.4 410.3,317.7 411.1,317.7C412.3,317.7 411.7,317.1 411.7,316.7C411.7,316.1 408.1,311.6 410.5,311.5C412.1,311.4 416.9,312.2 421.7,313.1C427.8,314.2 433.9,315.2 432.6,314.3C431,313.1 424.3,309.3 431.8,310.2C439.4,311.1 464.3,314.1 466.9,314.3C468.8,314.5 471.5,314.6 470.1,313.7C468.7,312.7 467.3,311.3 474.8,311.5L485.9,312C485.9,312 470.7,310.5 437.6,307C416.2,304.8 400.9,303.8 387.7,303.8C380.6,303.6 374,303.9 367.3,304.4"/>
                                </clipPath>
                                <g clip-path="url(#_clip7)">
                                    <path d="M516.9,316.9L355.8,320.8L317.7,304.3L478.8,300.4L516.9,316.9Z" style="fill:url(#_Radial8);fill-rule:nonzero;"/>
                                </g>
                            </g>
                        </g>
                    </g>
                </g>
            </g>
        </g>
        <g opacity="0.75">
            <g>
                <g>
                    <g opacity="0.2">
                        <g>
                            <g>
                                <clipPath id="_clip9">
                                    <path d="M440.1,301.6C435.2,301.6 429.9,301.7 423.9,302C401.6,303.5 393.4,306.3 389.7,306.9C387.5,307.3 371.9,309 360.8,308.9C352.2,308.8 345,308.3 344.1,307.9C342.3,307.2 336.5,306.4 336.5,306.4C336.5,306.4 330.6,306.3 330,307.7C330,307.8 329.9,307.9 329.9,307.9L329.9,308C330,308.7 331.7,308.6 333.4,308.6C334.3,308.6 335.3,308.6 336,308.7C338.3,309 347.1,310.2 356.9,310.2C366.4,310.2 384.7,308.7 388.2,309.6C391.7,310.5 402.5,313.2 402,314.6C401.5,316 405.1,314.5 406.7,313.9C408.3,313.2 410,311.8 411.8,312.4C413.6,313 422.8,316.3 423.9,317C425,317.6 428,316.7 429.3,316.3C430.5,315.9 438.2,312.3 441.5,312.1C443.1,312 446.1,312.6 449.3,313.3C452.7,314 456.3,314.7 458.6,314.4C458.6,314.4 454.3,311.5 455.6,310.8C456.9,310.1 464.8,309.5 472,310.7C478.1,311.7 489.6,313.9 490.8,314.1C492,314.3 500.2,314.7 501.2,314.7C502.2,314.6 498.2,314.2 498.2,314.2C498.2,314.2 514.9,314.2 520.1,313.5C525.2,312.8 527.9,311.8 528.4,311.6C528.9,311.4 523.3,312.2 523.3,312.2C520.7,312.5 516.4,312.5 512.1,312.5C504.8,312.4 493.7,309.1 484.1,306.9C476.6,305.2 465.7,301.7 440.2,301.7L440.1,301.7L440.1,301.6Z"/>
                                </clipPath>
                                <g clip-path="url(#_clip9)">
                                    <path d="M264.9,348.4L329.9,301.6L593.9,270.6L529,317.5L264.9,348.4Z" style="fill:url(#_Linear10);fill-rule:nonzero;"/>
                                </g>
                            </g>
                        </g>
                    </g>
                    <g opacity="0.2">
                        <g>
                            <g>
                                <clipPath id="_clip11">
                                    <path d="M441.2,301.6C436.2,301.6 430.9,301.8 425.1,302C402.2,303.1 389.5,307 389.5,307L391.7,307.2C393.7,307.6 389.6,312.1 391.9,311.6C394.3,311.1 407.6,308.2 410,308.4C412.3,308.6 415.8,313 415.6,315C415.5,315.8 416,316.1 416.7,316.1L416.8,316.1C418,316.1 419.7,315.5 421,315.1C423.3,314.5 436.3,310 439.2,309.8C441.1,309.7 442.5,310.7 443.8,311.6C445.5,312.8 447.1,314 449.4,313C452.5,311.7 460,307.8 463.7,308.9C467.3,310 479.4,313.5 480.8,313.8C481.8,314 483.9,314.2 486.1,313.2C488.3,312.2 492.3,310.7 498.5,311.1L507,311.8C507,311.8 498.5,310 480.9,305.8C467.9,302.7 456.1,301.4 441.6,301.4L441.2,301.4L441.2,301.6Z"/>
                                </clipPath>
                                <g clip-path="url(#_clip11)">
                                    <path d="M507.1,316.2L367.7,316.5L389.5,301.6L528.9,301.4L507.1,316.2Z" style="fill:url(#_Radial12);fill-rule:nonzero;"/>
                                </g>
                            </g>
                        </g>
                    </g>
                </g>
            </g>
        </g>
        <path d="M610.7,332.2L610.7,333L612.1,333L612.1,337.7L612.9,337.7L612.9,333L614.3,333L614.3,332.2L610.7,332.2ZM618.9,332.2L617.6,336L616.3,332.2L615.1,332.2L615.1,337.6L615.8,337.6L615.8,333L617.3,337.7L617.7,337.7L619.2,333L619.2,337.7L619.9,337.7L619.9,332.3L618.9,332.3L618.9,332.2Z" style="fill:rgb(22,21,25);fill-rule:nonzero;"/>
        <path d="M177.3,342.5C176.4,338.3 173.6,334.7 169,331.8C164.4,328.9 157.4,327.4 148.1,327.4C140.4,327.4 134.1,328.7 129.3,331.3C124.5,333.9 121.3,336.9 119.8,340.2C118.2,343.6 117.4,348.5 117.4,354.8L117.4,359.6L141.8,359.6L141.8,351.6C141.8,346.8 142,343.9 142.5,342.7C142.9,341.7 144,340.5 146.8,340.5C148.8,340.5 150.3,341.3 151.1,342.9C151.9,344.3 152.3,347.2 152.3,351.7C152.3,355.3 151.9,357.7 151.2,359C150.7,359.9 148.5,361.5 136.1,366C127.7,369 122.4,371.6 120.4,373.7C118.4,375.8 117.4,380 117.4,386L117.4,392.9C117.4,401.1 119.3,406.4 123.1,408.7C127,411.1 131.4,412.3 136.1,412.3C139.7,412.3 142.7,411.6 145.3,410.2C147.9,408.8 150,406.6 151.6,403.7L153.2,404L153.2,410.7L178.7,410.7L178.7,369.5C178.8,356 178.3,346.9 177.3,342.5M152.4,389.1C152.4,394.9 151.9,396.5 151.5,397.3C150.8,398.6 149.4,399.2 147.3,399.2C144.6,399.2 143.4,397.9 142.8,396.8C142.1,395.4 141.8,392.6 141.8,388.1C141.8,384.2 142.2,381.3 142.9,379.1C143.7,376.9 146.3,374.3 151,371.2L152.3,370.3L152.3,389.1L152.4,389.1Z" style="fill:rgb(0,85,134);fill-rule:nonzero;"/>
        <path d="M250,337.3C249.3,334.7 247.4,332.4 244.4,330.4C241.4,328.4 237.8,327.4 233.7,327.4C230.3,327.4 227.2,328.1 224.3,329.5C221.4,330.9 218.8,333.1 216.4,336L214.7,338L214.9,335.5L215.3,328.9L188.6,328.9L188.6,422.9L214.9,422.9L214.9,402.2L216.4,404C218.8,406.8 221.4,409 224.2,410.4C227,411.8 230.1,412.5 233.4,412.5C237.5,412.5 241.1,411.6 244,409.8C246.9,408 248.8,405.6 249.7,402.5C250.7,399.4 251.2,394 251.2,386.5L251.2,351.3C251.2,344.7 250.8,340 250,337.3M224.9,388.3C224.9,392.9 224.7,395.7 224.2,397C223.8,398 222.8,399.3 220.1,399.3C217.4,399.3 216.3,398 215.8,396.9C215.2,395.5 214.9,392.4 214.9,387.2L214.9,352.5C214.9,347.5 215.2,344.4 215.7,343.1C216.1,342 217.2,340.7 220,340.7C222.8,340.7 223.8,341.9 224.2,342.9C224.6,344.1 224.8,347.2 224.8,352.5L224.8,388.3L224.9,388.3Z" style="fill:rgb(0,85,134);fill-rule:nonzero;"/>
        <rect x="259.9" y="310.4" width="27.2" height="100.5" style="fill:rgb(0,85,134);"/>
        <path d="M358,370.6L358,360.3C358,352.3 357,346.1 355,341.7C353,337.4 349.6,333.9 344.7,331.3C339.8,328.7 333.4,327.3 325.8,327.3C319.6,327.3 314,328.4 309.2,330.6C304.5,332.8 301,335.9 299,339.9C296.9,344 295.8,349.7 295.8,356.9L295.8,381.3C295.8,387.4 296.3,392.1 297.2,395.3C298.1,398.4 299.8,401.4 302.2,404C304.6,406.6 308,408.7 312.4,410.2C316.8,411.7 321.9,412.5 327.7,412.5C333.6,412.5 338.6,411.7 342.5,410.2C346.4,408.7 349.6,406.4 352.1,403.3C354.6,400.2 356.3,397.3 357,394.7C357.7,392 358.1,388 358.1,382.9L358.1,377.5L333.3,377.5L333.3,387.8C333.3,392.1 332.9,395 332.2,396.6C331.6,397.8 330.3,399.2 327.3,399.2C324.8,399.2 323.7,398.1 323.2,397.1C322.5,395.9 322.2,393.4 322.2,389.4L322.2,370.5L358,370.5L358,370.6ZM322,351.6C322,345.2 322.4,343.4 322.7,342.7C323.1,341.7 324.2,340.6 327,340.6C328.9,340.6 330.2,341.4 330.8,343C331.3,344.4 331.6,347.2 331.6,351.6L331.6,358.5L322,358.5L322,351.6Z" style="fill:rgb(0,85,134);fill-rule:nonzero;"/>
        <path d="M108.3,310.3L108.3,411L83.3,411L83.2,343.1L73.2,411L55.6,411L45.1,344.5L45.1,411L20,411L20,310.4L57,310.4C58.1,316.5 59.2,323.6 60.4,331.8L64.5,357.3L71.1,310.3L108.3,310.3Z" style="fill:rgb(0,85,134);fill-rule:nonzero;"/>
        <clipPath id="_clip13">
            <path d="M142.9,396.9C142.2,395.5 141.9,392.7 141.9,388.2C141.9,384.3 142.3,381.4 143,379.2C143.8,377 146.4,374.4 151.1,371.3L152.4,370.4L152.4,389.2C152.4,395 151.9,396.6 151.5,397.4C150.8,398.7 149.4,399.3 147.3,399.3C144.6,399.2 143.4,398 142.9,396.9M127.8,369.4C124.2,371 121.7,372.5 120.5,373.8C118.5,375.9 117.5,380.1 117.5,386.1L117.5,393C117.5,401.2 119.4,406.5 123.2,408.8C127.1,411.2 131.5,412.4 136.2,412.4C139.8,412.4 142.8,411.7 145.4,410.3C148,408.9 150.1,406.7 151.7,403.8L153.3,404.1L153.3,410.8L178.8,410.8L178.8,366.6C160.7,367.6 143.6,368.5 127.8,369.4"/>
        </clipPath>
        <g clip-path="url(#_clip13)">
            <rect x="117.5" y="366.7" width="61.3" height="45.8" style="fill:url(#_Linear14);"/>
        </g>
        <clipPath id="_clip15">
            <path d="M224.8,364.9L224.8,388.3C224.8,392.9 224.6,395.7 224.1,397C223.7,398 222.7,399.3 220,399.3C217.3,399.3 216.2,398 215.7,396.9C215.1,395.5 214.8,392.4 214.8,387.2L214.8,365.3C205.8,365.6 197.1,366 188.5,366.4L188.5,423L214.8,423L214.8,402.3L216.3,404.1C218.7,406.9 221.3,409.1 224.1,410.5C226.9,411.9 230,412.6 233.3,412.6C237.4,412.6 241,411.7 243.9,409.9C246.8,408.1 248.7,405.7 249.6,402.6C250.6,399.5 251.1,394.1 251.1,386.6L251.1,364C242.2,364.3 233.5,364.6 224.8,364.9"/>
        </clipPath>
        <g clip-path="url(#_clip15)">
            <rect x="188.6" y="364" width="62.5" height="58.8" style="fill:url(#_Linear16);"/>
        </g>
        <clipPath id="_clip17">
            <path d="M259.9,363.8L259.9,411L287.1,411L287.1,363.3C277.9,363.4 268.9,363.6 259.9,363.8"/>
        </clipPath>
        <g clip-path="url(#_clip17)">
            <rect x="259.9" y="363.2" width="27.2" height="47.7" style="fill:url(#_Linear18);"/>
        </g>
        <clipPath id="_clip19">
            <path d="M295.7,363.1L295.7,381.4C295.7,387.5 296.2,392.3 297.1,395.4C298,398.5 299.7,401.5 302.1,404.1C304.5,406.7 307.9,408.8 312.3,410.3C316.7,411.8 321.8,412.6 327.6,412.6C333.5,412.6 338.5,411.8 342.4,410.3C346.3,408.8 349.5,406.5 352,403.4C354.5,400.3 356.2,397.4 356.9,394.8C357.6,392.1 358,388.1 358,383L358,377.6L333.2,377.6L333.2,387.9C333.2,392.2 332.8,395.1 332.1,396.7C331.5,397.9 330.2,399.3 327.2,399.3C324.7,399.3 323.6,398.2 323.1,397.2C322.5,396 322.1,393.5 322.1,389.5L322.1,370.6L358.1,370.6L358.1,362.8L343.9,362.8C327.5,362.7 311.5,362.9 295.7,363.1"/>
        </clipPath>
        <g clip-path="url(#_clip19)">
            <rect x="295.7" y="362.7" width="62.3" height="49.8" style="fill:url(#_Linear20);"/>
        </g>
        <clipPath id="_clip21">
            <path d="M83.2,372.4L83.3,411L108.3,411L108.3,370.7C99.4,371.2 91.1,371.8 83.2,372.4"/>
        </clipPath>
        <g clip-path="url(#_clip21)">
            <rect x="83.2" y="370.7" width="25.1" height="40.3" style="fill:url(#_Linear22);"/>
        </g>
        <clipPath id="_clip23">
            <path d="M20,377.5L20,411L45,411L45,375.3C34.3,376.2 25.8,376.9 20,377.5"/>
        </clipPath>
        <g clip-path="url(#_clip23)">
            <rect x="20" y="375.3" width="25.1" height="35.7" style="fill:url(#_Linear24);"/>
        </g>
        <clipPath id="_clip25">
            <path d="M49.9,374.9L55.6,411L73.2,411L78.8,372.7C68.1,373.5 58.4,374.2 49.9,374.9"/>
        </clipPath>
        <g clip-path="url(#_clip25)">
            <rect x="49.9" y="372.7" width="28.9" height="38.3" style="fill:url(#_Linear26);"/>
        </g>
        <clipPath id="_clip27">
            <path d="M408.5,390.9C408.5,400.9 400.5,406.1 392.1,406.1C382.6,406.1 375.3,399 372.9,394.4L370.9,394.4C370.9,397.8 369,403.9 367.7,406.8C372.4,409.5 379.2,412.4 389.5,412.4C408.3,412.4 420,398.5 420,385.6C420,372.2 411.2,368 401.8,365.1C391.5,364.7 380.7,363.3 370.5,363C378.7,379.3 408.5,373.2 408.5,390.9"/>
        </clipPath>
        <g clip-path="url(#_clip27)">
            <rect x="367.7" y="363.1" width="52.3" height="49.3" style="fill:url(#_Linear28);"/>
        </g>
        <clipPath id="_clip29">
            <path d="M425.6,370.2C425.6,401 447.1,412.4 466.8,412.4C486.2,412.4 507.4,401.3 507.9,371.4C502.9,371 498,370.6 493,370.2C493,389.2 486.7,407 466.8,407C446.8,407 440.5,389.2 440.5,370.2C440.5,369.1 440.5,367.9 440.6,366.8C435.6,366.5 430.7,366.3 425.8,366.1C425.6,367.5 425.6,368.8 425.6,370.2"/>
        </clipPath>
        <g clip-path="url(#_clip29)">
            <rect x="425.6" y="366.1" width="82.3" height="46.3" style="fill:url(#_Linear30);"/>
        </g>
        <clipPath id="_clip31">
            <path d="M519.1,410.7C521.6,410.2 524.2,409.9 526.5,409.9C528.9,409.9 531.4,410.2 533.8,410.7C533.5,398.3 533.3,386 533.2,373.8C528.9,373.4 524.7,373 520.4,372.6C520.3,385.2 519.9,397.9 519.1,410.7"/>
        </clipPath>
        <g clip-path="url(#_clip31)">
            <rect x="519.1" y="372.5" width="14.7" height="38.2" style="fill:url(#_Linear32);"/>
        </g>
        <clipPath id="_clip33">
            <path d="M569.3,391.2C569.3,404.4 576.1,412.4 590.1,412.4C594.3,412.4 599.2,411.2 603.2,409.9L603.2,405.8C601,406.5 597.4,407 595.6,407C582.2,407 581.9,394.1 581.9,381.4L581.9,379.3C577.8,378.8 573.7,378.3 569.6,377.7C569.4,382.7 569.3,387.1 569.3,391.2"/>
        </clipPath>
        <g clip-path="url(#_clip33)">
            <rect x="569.3" y="377.8" width="33.9" height="34.6" style="fill:url(#_Linear34);"/>
        </g>
    </g>
    <defs>
        <linearGradient id="_Linear2" x1="0" y1="0" x2="1" y2="0" gradientUnits="userSpaceOnUse" gradientTransform="matrix(2.33595,61.6997,-61.6997,2.33595,402.513,220.316)"><stop offset="0" style="stop-color:white;stop-opacity:1"/><stop offset="1" style="stop-color:rgb(0,85,134);stop-opacity:1"/></linearGradient>
        <radialGradient id="_Radial4" cx="0" cy="0" r="1" gradientUnits="userSpaceOnUse" gradientTransform="matrix(-101.599,25.8977,-25.8977,-101.599,448.22,178.596)"><stop offset="0" style="stop-color:white;stop-opacity:1"/><stop offset="1" style="stop-color:rgb(0,85,134);stop-opacity:1"/></radialGradient>
        <linearGradient id="_Linear6" x1="0" y1="0" x2="1" y2="0" gradientUnits="userSpaceOnUse" gradientTransform="matrix(-105.175,-41.0386,41.0386,-105.175,481.329,343.172)"><stop offset="0" style="stop-color:white;stop-opacity:1"/><stop offset="1" style="stop-color:rgb(0,85,134);stop-opacity:1"/></linearGradient>
        <radialGradient id="_Radial8" cx="0" cy="0" r="1" gradientUnits="userSpaceOnUse" gradientTransform="matrix(-115.326,2.77807,85.9925,37.1152,497.173,340.733)"><stop offset="0" style="stop-color:white;stop-opacity:1"/><stop offset="0.01" style="stop-color:white;stop-opacity:1"/><stop offset="1" style="stop-color:rgb(0,85,134);stop-opacity:1"/></radialGradient>
        <linearGradient id="_Linear10" x1="0" y1="0" x2="1" y2="0" gradientUnits="userSpaceOnUse" gradientTransform="matrix(60.4159,-43.609,43.609,60.4159,382.33,343.517)"><stop offset="0" style="stop-color:white;stop-opacity:1"/><stop offset="1" style="stop-color:rgb(0,85,134);stop-opacity:1"/></linearGradient>
        <radialGradient id="_Radial12" cx="0" cy="0" r="1" gradientUnits="userSpaceOnUse" gradientTransform="matrix(-116.036,0.192346,-57.3326,39.0113,410.968,341.257)"><stop offset="0" style="stop-color:white;stop-opacity:1"/><stop offset="1" style="stop-color:rgb(0,85,134);stop-opacity:1"/></radialGradient>
        <linearGradient id="_Linear14" x1="0" y1="0" x2="1" y2="0" gradientUnits="userSpaceOnUse" gradientTransform="matrix(5.45188e-15,89.0359,-89.0359,5.45188e-15,148.147,321.799)"><stop offset="0" style="stop-color:white;stop-opacity:1"/><stop offset="1" style="stop-color:rgb(0,85,134);stop-opacity:1"/></linearGradient>
        <linearGradient id="_Linear16" x1="0" y1="0" x2="1" y2="0" gradientUnits="userSpaceOnUse" gradientTransform="matrix(5.45207e-15,89.039,-89.039,5.45207e-15,219.894,321.795)"><stop offset="0" style="stop-color:white;stop-opacity:1"/><stop offset="1" style="stop-color:rgb(0,85,134);stop-opacity:1"/></linearGradient>
        <linearGradient id="_Linear18" x1="0" y1="0" x2="1" y2="0" gradientUnits="userSpaceOnUse" gradientTransform="matrix(5.45202e-15,89.0382,-89.0382,5.45202e-15,273.474,321.797)"><stop offset="0" style="stop-color:white;stop-opacity:1"/><stop offset="1" style="stop-color:rgb(0,85,134);stop-opacity:1"/></linearGradient>
        <linearGradient id="_Linear20" x1="0" y1="0" x2="1" y2="0" gradientUnits="userSpaceOnUse" gradientTransform="matrix(5.45223e-15,89.0417,-89.0417,5.45223e-15,326.851,321.794)"><stop offset="0" style="stop-color:white;stop-opacity:1"/><stop offset="1" style="stop-color:rgb(0,85,134);stop-opacity:1"/></linearGradient>
        <linearGradient id="_Linear22" x1="0" y1="0" x2="1" y2="0" gradientUnits="userSpaceOnUse" gradientTransform="matrix(5.45214e-15,89.0402,-89.0402,5.45214e-15,95.7752,321.796)"><stop offset="0" style="stop-color:white;stop-opacity:1"/><stop offset="1" style="stop-color:rgb(0,85,134);stop-opacity:1"/></linearGradient>
        <linearGradient id="_Linear24" x1="0" y1="0" x2="1" y2="0" gradientUnits="userSpaceOnUse" gradientTransform="matrix(5.45223e-15,89.0417,-89.0417,5.45223e-15,32.5442,321.794)"><stop offset="0" style="stop-color:white;stop-opacity:1"/><stop offset="1" style="stop-color:rgb(0,85,134);stop-opacity:1"/></linearGradient>
        <linearGradient id="_Linear26" x1="0" y1="0" x2="1" y2="0" gradientUnits="userSpaceOnUse" gradientTransform="matrix(5.45214e-15,89.0402,-89.0402,5.45214e-15,64.3661,321.795)"><stop offset="0" style="stop-color:white;stop-opacity:1"/><stop offset="1" style="stop-color:rgb(0,85,134);stop-opacity:1"/></linearGradient>
        <linearGradient id="_Linear28" x1="0" y1="0" x2="1" y2="0" gradientUnits="userSpaceOnUse" gradientTransform="matrix(7.31636e-15,119.485,-119.485,7.31636e-15,393.871,286.532)"><stop offset="0" style="stop-color:white;stop-opacity:1"/><stop offset="1" style="stop-color:rgb(35,24,21);stop-opacity:1"/></linearGradient>
        <linearGradient id="_Linear30" x1="0" y1="0" x2="1" y2="0" gradientUnits="userSpaceOnUse" gradientTransform="matrix(7.13818e-15,116.575,-116.575,7.13818e-15,466.731,289.599)"><stop offset="0" style="stop-color:white;stop-opacity:1"/><stop offset="1" style="stop-color:rgb(35,24,21);stop-opacity:1"/></linearGradient>
        <linearGradient id="_Linear32" x1="0" y1="0" x2="1" y2="0" gradientUnits="userSpaceOnUse" gradientTransform="matrix(7.13818e-15,116.575,-116.575,7.13818e-15,526.518,289.599)"><stop offset="0" style="stop-color:white;stop-opacity:1"/><stop offset="1" style="stop-color:rgb(35,24,21);stop-opacity:1"/></linearGradient>
        <linearGradient id="_Linear34" x1="0" y1="0" x2="1" y2="0" gradientUnits="userSpaceOnUse" gradientTransform="matrix(7.13818e-15,116.575,-116.575,7.13818e-15,586.221,289.599)"><stop offset="0" style="stop-color:white;stop-opacity:1"/><stop offset="1" style="stop-color:rgb(35,24,21);stop-opacity:1"/></linearGradient>
    </defs>
</svg>
