<?xml version="1.0" encoding="UTF-8" standalone="no"?>
<!DOCTYPE svg PUBLIC "-//W3C//DTD SVG 1.1//EN" "http://www.w3.org/Graphics/SVG/1.1/DTD/svg11.dtd">
<svg width="100%" height="100%" viewBox="0 0 187 50" version="1.1" xmlns="http://www.w3.org/2000/svg" xmlns:xlink="http://www.w3.org/1999/xlink" xml:space="preserve" xmlns:serif="http://www.serif.com/" style="fill-rule:evenodd;clip-rule:evenodd;stroke-linejoin:round;stroke-miterlimit:2;">
    <g transform="matrix(1,0,0,1,-3.94531,-72.342)">
        <path d="M40.887,72.453C50.797,74.898 59.902,79.844 67.418,86.555C74.945,93.277 80.883,101.789 84.441,111.355C84.684,112.004 84.922,112.652 83.629,113.137C82.34,113.617 82.098,112.969 81.855,112.32C78.465,103.199 72.781,95.063 65.566,88.621C58.375,82.195 49.676,77.469 40.227,75.137C39.555,74.969 38.883,74.805 39.215,73.461C39.543,72.121 40.215,72.285 40.887,72.453" style="fill:rgb(1,139,187);fill-rule:nonzero;"/>
        <path d="M56.836,76.984C61.508,75.633 71.93,72.754 75.371,77.68C79.875,84.129 68.75,100.262 49.598,115.523C47.906,116.871 47.77,119.152 48.961,120.48C50.367,122.055 52.52,122.055 53.52,121.188C75.762,101.965 83.008,83.973 77.051,76.449C73.668,72.172 66.367,72.348 56.398,75.637C55.965,75.777 55.805,76.16 55.898,76.504C56.027,76.965 56.434,77.102 56.836,76.984" style="fill:rgb(133,194,159);"/>
        <path d="M22.93,106.953L19.309,106.953L18.387,92.547L14.773,106.953L12.23,106.957L8.637,92.547L7.477,106.953L3.945,106.953L6.27,86.066L9.449,86.066L13.398,101.105L17.094,86.066L20.344,86.066L22.93,106.953" style="fill:rgb(34,31,31);"/>
        <path d="M37.035,101.605C37.035,103.379 36.434,104.727 35.234,105.652C33.859,106.703 32.242,107.23 30.375,107.23C28.832,107.23 27.516,106.906 26.438,106.262L26.438,103.434C27.078,103.785 27.719,104.07 28.355,104.293C29.023,104.477 29.59,104.57 30.055,104.57C31.09,104.57 31.953,104.246 32.641,103.602C33.109,103.141 33.344,102.547 33.344,101.828L33.344,101.273C33.344,101.016 33.324,100.828 33.289,100.707C33.25,100.586 33.172,100.398 33.047,100.137C32.926,99.879 32.82,99.695 32.734,99.586C32.641,99.473 32.488,99.309 32.266,99.086C31.625,98.457 30.723,97.719 29.559,96.867C28.395,96.02 27.504,95.277 26.887,94.641C26.27,94.004 25.844,93.203 25.625,92.242L25.625,91.078C25.625,89.602 26.074,88.41 26.977,87.508C28.129,86.359 29.691,85.789 31.676,85.789C32.359,85.789 33.016,85.844 33.652,85.953C34.293,86.066 34.961,86.25 35.672,86.508L35.672,89.254C34.758,88.68 33.727,88.395 32.566,88.395C31.633,88.395 30.832,88.652 30.168,89.168C29.551,89.684 29.242,90.414 29.242,91.355C29.242,92.02 29.516,92.594 30.055,93.074C30.547,93.555 31.461,94.313 32.789,95.344C33.379,95.77 33.945,96.25 34.488,96.785C35.031,97.246 35.48,97.688 35.836,98.102C36.195,98.52 36.484,98.98 36.703,99.488C36.926,99.996 37.035,100.496 37.035,100.996L37.035,101.605" style="fill:rgb(34,31,31);"/>
        <path d="M51.07,106.621C50.258,107.027 49.227,107.23 47.969,107.23C46.836,107.23 45.711,107.035 44.59,106.648C43.469,106.262 42.59,105.734 41.949,105.07C41.234,104.258 40.652,103.121 40.195,101.66C39.738,100.203 39.512,98.539 39.512,96.676C39.512,95.77 39.535,95.02 39.586,94.418C39.637,93.816 39.746,93.156 39.918,92.438C40.215,91.164 40.652,90.039 41.23,89.07C41.809,88.102 42.676,87.313 43.832,86.703C44.988,86.094 46.246,85.789 47.602,85.789C48.805,85.789 49.965,85.992 51.07,86.398L51.07,88.945C50.285,88.578 49.434,88.395 48.523,88.395C46.801,88.395 45.48,89.133 44.57,90.609C44.203,91.164 43.914,91.98 43.703,93.059C43.492,94.141 43.391,95.383 43.391,96.785L43.391,98.699L43.766,100.801C43.961,101.652 44.469,102.512 45.273,103.379C46.078,104.246 47.254,104.68 48.793,104.68C49.219,104.68 49.613,104.641 49.969,104.555C50.332,104.473 50.695,104.348 51.07,104.184L51.07,106.621" style="fill:rgb(34,31,31);"/>
        <path d="M76.879,119.758C76.879,120.211 76.766,120.555 76.531,120.793C76.27,121.063 75.957,121.199 75.598,121.199C75.301,121.199 75.047,121.117 74.84,120.949L74.84,120.227C74.965,120.316 75.086,120.387 75.211,120.445C75.336,120.492 75.445,120.516 75.535,120.516C75.734,120.516 75.902,120.434 76.035,120.27C76.125,120.148 76.168,119.996 76.168,119.813L76.168,119.672C76.168,119.605 76.164,119.555 76.16,119.523C76.152,119.492 76.137,119.445 76.113,119.379C76.09,119.313 76.07,119.266 76.051,119.238C76.035,119.207 76.004,119.164 75.961,119.109C75.84,118.949 75.664,118.758 75.441,118.539C75.215,118.324 75.043,118.133 74.926,117.969C74.809,117.805 74.727,117.598 74.684,117.352L74.684,117.055C74.684,116.676 74.77,116.367 74.945,116.137C75.164,115.844 75.469,115.695 75.848,115.695C75.98,115.695 76.105,115.711 76.227,115.738C76.352,115.766 76.48,115.816 76.617,115.883L76.617,116.586C76.441,116.438 76.242,116.363 76.02,116.363C75.84,116.363 75.688,116.43 75.559,116.563C75.441,116.695 75.379,116.883 75.379,117.125C75.379,117.297 75.434,117.441 75.535,117.566C75.633,117.688 75.805,117.883 76.063,118.148C76.176,118.258 76.285,118.383 76.391,118.52C76.492,118.637 76.582,118.75 76.648,118.855C76.719,118.965 76.773,119.082 76.816,119.211C76.859,119.344 76.879,119.473 76.879,119.598L76.879,119.758" style="fill:rgb(34,31,31);"/>
        <path d="M80.754,121.129L80.051,121.129L80.051,115.766L80.754,115.766L80.754,121.129" style="fill:rgb(34,31,31);"/>
        <path d="M87.57,121.129L86.871,121.129L86.695,117.43L86,121.129L85.512,121.129L84.816,117.43L84.594,121.129L83.914,121.129L84.363,115.766L84.973,115.766L85.734,119.629L86.445,115.766L87.07,115.766L87.57,121.129" style="fill:rgb(34,31,31);"/>
        <path d="M93.191,115.766L93.176,119.629L93.176,119.715C93.176,120.234 93.098,120.605 92.934,120.824C92.848,120.941 92.727,121.035 92.566,121.105C92.395,121.168 92.195,121.199 91.969,121.199L91.898,121.199C91.484,121.199 91.188,121.074 91,120.824C90.816,120.578 90.723,120.164 90.723,119.586L90.723,115.766L91.426,115.766L91.426,119.5C91.426,119.848 91.457,120.102 91.52,120.27C91.578,120.441 91.711,120.531 91.918,120.531C92.16,120.531 92.313,120.473 92.375,120.359C92.441,120.246 92.473,120.012 92.473,119.656L92.473,115.766L93.191,115.766" style="fill:rgb(34,31,31);"/>
        <path d="M98.508,121.129L96.594,121.129L96.594,115.766L97.297,115.766L97.297,120.504L98.508,120.504L98.508,121.129" style="fill:rgb(34,31,31);"/>
        <path d="M102.949,119.527L102.527,116.797L102.09,119.527L102.949,119.527ZM103.973,121.129L103.25,121.129L103.039,120.09L101.988,120.09L101.785,121.129L101.086,121.129L102.254,115.766L102.82,115.766L103.973,121.129" style="fill:rgb(34,31,31);"/>
        <path d="M108.883,116.379L108.078,116.379L108.078,121.129L107.355,121.129L107.355,116.379L106.523,116.379L106.523,115.766L108.883,115.766L108.883,116.379" style="fill:rgb(34,31,31);"/>
        <path d="M112.527,121.129L111.824,121.129L111.824,115.766L112.527,115.766L112.527,121.129" style="fill:rgb(34,31,31);"/>
        <path d="M118.453,121.129L117.785,121.129L116.547,116.988L116.531,117.027L116.621,118.129L116.664,118.984L116.664,121.129L115.961,121.129L115.961,115.766L116.637,115.766L117.887,119.836L117.918,119.832L117.859,119.043L117.801,118.223L117.773,117.785L117.754,117.316L117.754,115.766L118.453,115.766L118.453,121.129" style="fill:rgb(34,31,31);"/>
        <path d="M124.441,119.043C124.441,119.566 124.391,119.988 124.285,120.316C124.184,120.645 124.039,120.875 123.855,121.016C123.676,121.137 123.449,121.199 123.176,121.199C122.777,121.199 122.465,121.086 122.242,120.859C122.039,120.629 121.906,120.313 121.84,119.902C121.777,119.492 121.746,119.004 121.746,118.434L121.746,118.184C121.746,118.031 121.746,117.887 121.754,117.742C121.758,117.602 121.766,117.469 121.781,117.344C121.797,117.223 121.813,117.105 121.828,116.996C121.848,116.887 121.871,116.785 121.902,116.684C121.992,116.34 122.137,116.086 122.336,115.93C122.535,115.773 122.797,115.695 123.117,115.695L123.176,115.695C123.801,115.695 124.211,116.059 124.41,116.785L123.73,117.063C123.699,116.84 123.629,116.664 123.512,116.539C123.395,116.414 123.258,116.352 123.102,116.352C122.859,116.352 122.695,116.504 122.605,116.813C122.57,116.934 122.543,117.117 122.52,117.352C122.496,117.59 122.484,117.785 122.48,117.941C122.48,118.098 122.477,118.223 122.477,118.313C122.477,118.711 122.484,119.008 122.504,119.199C122.52,119.391 122.531,119.523 122.547,119.602C122.559,119.68 122.578,119.813 122.617,119.996C122.652,120.184 122.715,120.32 122.805,120.41C122.895,120.492 123.008,120.531 123.145,120.531C123.535,120.531 123.73,120.121 123.73,119.309L123.73,118.918L123.133,118.918L123.133,118.297L124.441,118.297L124.441,119.043" style="fill:rgb(34,31,31);"/>
        <path d="M134.863,121.125L134.129,121.129L133.141,118.504L133.141,121.129L132.438,121.129L132.438,115.766L133.402,115.766C133.777,115.766 134.066,115.863 134.266,116.051C134.363,116.148 134.445,116.273 134.512,116.426C134.574,116.578 134.605,116.742 134.605,116.926L134.605,117.418L134.563,117.672C134.496,117.922 134.402,118.121 134.285,118.266C134.172,118.41 134.035,118.492 133.875,118.508L134.863,121.125ZM133.867,117.238C133.867,116.992 133.82,116.785 133.73,116.621C133.684,116.535 133.605,116.477 133.488,116.441C133.375,116.398 133.262,116.379 133.141,116.379L133.141,118.141L133.199,118.141C133.645,118.141 133.867,117.84 133.867,117.238" style="fill:rgb(34,31,31);"/>
        <path d="M139.859,121.129L137.945,121.129L137.945,115.766L139.859,115.766L139.859,116.379L138.648,116.379L138.648,118.07L139.738,118.07L139.738,118.684L138.648,118.684L138.648,120.504L139.859,120.504L139.859,121.129" style="fill:rgb(34,31,31);"/>
        <path d="M144.426,119.527L144.008,116.797L143.566,119.527L144.426,119.527ZM145.449,121.129L144.73,121.129L144.52,120.09L143.469,120.09L143.262,121.129L142.566,121.129L143.73,115.766L144.301,115.766L145.449,121.129" style="fill:rgb(34,31,31);"/>
        <path d="M150.375,121.129L148.465,121.129L148.465,115.766L149.168,115.766L149.168,120.504L150.375,120.504L150.375,121.129" style="fill:rgb(34,31,31);"/>
        <path d="M154.063,121.129L153.359,121.129L153.359,115.766L154.063,115.766L154.063,121.129" style="fill:rgb(34,31,31);"/>
        <path d="M159.395,116.379L158.59,116.379L158.59,121.129L157.867,121.129L157.867,116.379L157.035,116.379L157.035,115.766L159.395,115.766L159.395,116.379" style="fill:rgb(34,31,31);"/>
        <path d="M164.684,115.766L163.695,118.809L163.695,121.129L162.969,121.129L162.969,118.824L161.914,115.766L162.676,115.766L163.344,118.242L163.402,117.895L163.477,117.555L163.676,116.75L163.914,115.766L164.684,115.766" style="fill:rgb(34,31,31);"/>
        <path d="M100.199,101.605C100.199,103.379 99.598,104.727 98.398,105.652C97.023,106.703 95.406,107.23 93.539,107.23C91.996,107.23 90.68,106.906 89.602,106.262L89.602,103.434C90.242,103.785 90.883,104.07 91.523,104.293C92.188,104.477 92.754,104.57 93.219,104.57C94.254,104.57 95.117,104.246 95.805,103.602C96.273,103.141 96.508,102.547 96.508,101.828L96.508,101.273C96.508,101.016 96.488,100.828 96.453,100.707C96.414,100.586 96.336,100.398 96.211,100.137C96.09,99.879 95.984,99.695 95.898,99.586C95.805,99.473 95.652,99.309 95.43,99.086C94.789,98.457 93.887,97.719 92.723,96.867C91.559,96.02 90.664,95.277 90.051,94.641C89.434,94.004 89.012,93.203 88.789,92.242L88.789,91.078C88.789,89.602 89.238,88.41 90.145,87.508C91.293,86.359 92.855,85.789 94.84,85.789C95.523,85.789 96.18,85.844 96.816,85.953C97.457,86.066 98.125,86.25 98.836,86.508L98.836,89.254C97.922,88.68 96.891,88.395 95.73,88.395C94.797,88.395 93.996,88.652 93.332,89.168C92.715,89.684 92.406,90.414 92.406,91.355C92.406,92.02 92.68,92.594 93.219,93.074C93.715,93.555 94.625,94.313 95.953,95.344C96.543,95.77 97.109,96.25 97.652,96.785C98.195,97.246 98.645,97.688 99,98.102C99.359,98.52 99.648,98.98 99.867,99.488C100.09,99.996 100.199,100.496 100.199,100.996L100.199,101.605" style="fill:rgb(34,31,31);"/>
        <path d="M113.953,99.195C113.953,100.512 113.852,101.629 113.645,102.555C113.438,103.477 113.109,104.309 112.648,105.047C111.766,106.465 110.242,107.176 108.09,107.176C106.313,107.176 104.918,106.574 103.914,105.379C103.422,104.773 103.027,103.992 102.742,103.039C102.457,102.09 102.313,100.984 102.313,99.727L102.313,98.508L102.371,96.535C102.371,96.211 102.383,95.973 102.402,95.816C102.422,95.66 102.52,95.266 102.699,94.633C102.934,93.465 103.395,92.477 104.07,91.672C104.754,90.867 105.711,90.359 106.953,90.152L108.281,90.043C109.148,90.043 109.918,90.191 110.586,90.488C111.594,90.898 112.34,91.535 112.832,92.395C113.07,92.82 113.277,93.273 113.453,93.746C113.629,94.219 113.719,94.684 113.719,95.141C113.719,95.363 113.73,95.699 113.75,96.148C113.77,96.598 113.777,96.938 113.777,97.156L113.953,99.195ZM110.824,98.242L110.824,97.891C110.824,96.781 110.734,95.781 110.559,94.887C110.379,93.992 110.105,93.305 109.73,92.824C109.355,92.344 108.855,92.105 108.223,92.105L108.105,92.105C107.574,92.105 107.145,92.246 106.82,92.535C106.496,92.824 106.223,93.293 106.008,93.945C105.93,94.254 105.863,94.516 105.816,94.73C105.766,94.945 105.691,95.383 105.594,96.039C105.496,96.695 105.445,97.477 105.445,98.375L105.445,99.641C105.445,103.305 106.348,105.137 108.148,105.137L108.391,105.137C109.031,105.078 109.531,104.809 109.895,104.336C110.254,103.863 110.492,103.324 110.613,102.719L110.766,101.633L110.824,100.703L110.824,98.242" style="fill:rgb(34,31,31);"/>
        <path d="M125.066,92.148L119.984,92.148L119.984,97.422L124.535,97.422L124.535,99.328L119.984,99.328L119.984,106.953L117.063,106.953L117.063,90.242L125.066,90.242L125.066,92.148" style="fill:rgb(34,31,31);"/>
        <path d="M136.164,92.148L132.828,92.148L132.828,106.953L129.813,106.953L129.813,92.148L126.355,92.148L126.355,90.242L136.164,90.242L136.164,92.148" style="fill:rgb(34,31,31);"/>
        <path d="M154.621,90.242L150.66,106.953L148.52,106.953L145.965,95.773L143.297,106.953L141.176,106.953L137.336,90.242L139.965,90.242L142.277,102.785L144.691,90.242L147.258,90.242L149.617,102.785L152.109,90.242L154.621,90.242" style="fill:rgb(34,31,31);"/>
        <path d="M162.656,101.965L160.914,93.457L159.078,101.965L162.656,101.965ZM166.91,106.953L163.906,106.957L163.039,103.719L158.668,103.719L157.816,106.953L154.914,106.953L159.762,90.242L162.125,90.242L166.91,106.953" style="fill:rgb(34,31,31);"/>
        <path d="M180.023,106.949L176.969,106.953L172.863,98.773L172.863,106.953L169.938,106.953L169.938,90.242L173.941,90.242C175.512,90.242 176.711,90.539 177.535,91.125C177.949,91.438 178.285,91.824 178.551,92.293C178.816,92.766 178.949,93.285 178.949,93.859L178.949,95.383L178.773,96.18C178.492,96.957 178.113,97.574 177.625,98.027C177.145,98.488 176.57,98.734 175.914,98.777L180.023,106.949ZM175.879,94.832C175.879,94.063 175.691,93.422 175.316,92.902C175.117,92.637 174.785,92.453 174.313,92.348C173.84,92.215 173.355,92.148 172.863,92.148L172.863,97.645L173.102,97.645C174.949,97.645 175.879,96.707 175.879,94.832" style="fill:rgb(34,31,31);"/>
        <path d="M190.18,106.953L182.23,106.953L182.23,90.242L190.18,90.242L190.18,92.148L185.156,92.148L185.156,97.422L189.676,97.422L189.676,99.328L185.156,99.328L185.156,105.004L190.18,105.004L190.18,106.953" style="fill:rgb(34,31,31);"/>
    </g>
</svg>
