<svg xmlns="http://www.w3.org/2000/svg" viewBox="0 0 98.21 63.63"><title>Asset 3</title><path d="M74.41.07H0V38.25H41.32V24.78h8.83c3.74,0,7.64,1.95,7.64,6.74v6.74H98.21c0-10.18-4.94-15.57-15.87-18,4.19-.45,8.23-.6,11.38-3.14S98.66,8.61,93,3.82C88.93.52,82.49.07,74.41.07M53.15,15.49h-12V9.81H53A5.76,5.76,0,0,1,56.89,11a2.35,2.35,0,0,1,0,3.29,5.14,5.14,0,0,1-3.74,1.2" style="fill:#0067b1"/><rect y="41.39" width="98.21" height="22.16" style="fill:#a6b1b7"/><path d="M85.63,57.71a4.75,4.75,0,0,0,3.44-1.35,4.88,4.88,0,0,0,1.5-3.44,5.6,5.6,0,0,0-1.5-3.74,4.49,4.49,0,0,0-3.44-1.5,5.16,5.16,0,0,0-3.44,1.5,4.88,4.88,0,0,0-1.5,3.44,5.6,5.6,0,0,0,1.5,3.74,4.75,4.75,0,0,0,3.44,1.35m8.08-5.09a8.53,8.53,0,0,1-.6,3.29,7.49,7.49,0,0,1-1.65,2.55,8.49,8.49,0,0,1-2.69,1.8,10.66,10.66,0,0,1-3.14.6,8.47,8.47,0,0,1-2.69-.45,7.59,7.59,0,0,1-2.4-1.35,7.05,7.05,0,0,1-2.25-2.84,8.88,8.88,0,0,1-.75-3.44,7.81,7.81,0,0,1,.6-3.14,6.09,6.09,0,0,1,1.8-2.55,8.26,8.26,0,0,1,9-1.8,8.13,8.13,0,0,1,4.34,4.19,11.39,11.39,0,0,1,.45,3.14M63.93,60.26V44.84h4.19a15.08,15.08,0,0,1,2.84.3,4.12,4.12,0,0,1,2.25,1.2,5.85,5.85,0,0,1,2.1,2.55,9.78,9.78,0,0,1,.9,3.59,10.55,10.55,0,0,1-.9,3.74,7.32,7.32,0,0,1-2.1,2.69,9.15,9.15,0,0,1-2.1,1,19.66,19.66,0,0,1-2.84.3Zm3.14-2.84h1.8a4.72,4.72,0,0,0,2.84-1.2,5.4,5.4,0,0,0,1.5-3.74,5,5,0,0,0-1.5-3.59,3.83,3.83,0,0,0-2.84-1.2h-1.8ZM35.48,60.26l6.14-15.57h3.14L50.6,60.26H47.31L46,57.11H40.12l-1.2,3.14Zm9.73-5.54-2.1-5.84L41,54.72ZM34.28,49a5.28,5.28,0,0,0-1.95-1.2,4.31,4.31,0,0,0-2.4-.45,4.49,4.49,0,0,0-2.69,1.2,5.08,5.08,0,0,0-1.8,3.89,5.31,5.31,0,0,0,4.19,5.09,6.27,6.27,0,0,0,2.4-.15,6.27,6.27,0,0,0,2.1-1.35v3.44a6.62,6.62,0,0,1-2.25.75,6.48,6.48,0,0,1-2.4.15,8,8,0,0,1-7.34-8.08,7.49,7.49,0,0,1,2.4-5.84,7.28,7.28,0,0,1,4.94-2.25,4.27,4.27,0,0,1,2.4.3,6,6,0,0,1,2.25.9ZM17.82,44.84H21V60.41H17.82Zm-9.28,7H9a4.12,4.12,0,0,0,2.4-.45,2.59,2.59,0,0,0,.75-1.95,1.93,1.93,0,0,0-.75-1.65A4.84,4.84,0,0,0,9,47.38H8.53Zm46.11,0h.45a4.12,4.12,0,0,0,2.4-.45,2.59,2.59,0,0,0,.75-1.95,1.93,1.93,0,0,0-.75-1.65,4.84,4.84,0,0,0-2.4-.45h-.45ZM16.77,60.26H12.87L8.53,53.67v6.59H5.39V44.84H10a7.26,7.26,0,0,1,4,1,4,4,0,0,1,1.35,3.29A4.49,4.49,0,0,1,14.67,52a5.19,5.19,0,0,1-2.84,1.8Zm46.11,0H59l-4.34-6.59v6.59H51.5V44.84h4.64a7.26,7.26,0,0,1,4,1,4,4,0,0,1,1.35,3.29A4.49,4.49,0,0,1,60.78,52a5.19,5.19,0,0,1-2.84,1.8Z" style="fill:#fff"/><rect width="98.21" height="63.63" style="fill:none"/><rect x="5.24" y="0.07" width="3.14" height="38.18" style="fill:#a6b1b7"/></svg>