<?xml version="1.0" encoding="UTF-8" standalone="no"?>
<!DOCTYPE svg PUBLIC "-//W3C//DTD SVG 1.1//EN" "http://www.w3.org/Graphics/SVG/1.1/DTD/svg11.dtd">
<svg width="100%" height="100%" viewBox="0 0 555 89" version="1.1" xmlns="http://www.w3.org/2000/svg" xmlns:xlink="http://www.w3.org/1999/xlink" xml:space="preserve" xmlns:serif="http://www.serif.com/" style="fill-rule:evenodd;clip-rule:evenodd;stroke-linejoin:round;stroke-miterlimit:2;">
    <g transform="matrix(1,0,0,1,-18.9536,-26.2315)">
        <path d="M567.272,29.329L567.272,45.852C558.712,42.62 551.091,40.986 544.421,40.986C540.47,40.986 537.324,41.718 534.958,43.133C532.592,44.559 531.385,46.315 531.385,48.388C531.385,51.144 534.055,53.595 539.433,55.79L554.968,63.35C567.528,69.338 573.759,77.288 573.759,87.275C573.759,95.579 570.455,102.201 563.785,107.103C557.163,112.054 548.249,114.504 537.153,114.504C532.031,114.504 527.434,114.285 523.349,113.822C519.264,113.383 514.57,112.48 509.363,111.188L509.363,93.897C518.911,97.128 527.605,98.762 535.433,98.762C544.774,98.762 549.42,96.055 549.42,90.592C549.42,87.873 547.518,85.678 543.652,83.958L526.398,76.605C520.032,73.727 515.301,70.24 512.204,66.106C509.155,61.936 507.607,57.156 507.607,51.693C507.607,44.047 510.826,37.889 517.191,33.206C523.605,28.56 532.117,26.232 542.701,26.232C546.14,26.232 550.103,26.536 554.493,27.097C558.919,27.695 563.175,28.426 567.272,29.329Z" style="fill:rgb(0,153,153);"/>
        <path d="M78.583,29.329L78.583,45.852C70.022,42.62 62.413,40.986 55.743,40.986C51.78,40.986 48.646,41.718 46.28,43.133C43.915,44.559 42.708,46.315 42.708,48.388C42.708,51.144 45.415,53.595 50.792,55.79L66.328,63.35C78.839,69.338 85.082,77.288 85.082,87.275C85.082,95.579 81.765,102.201 75.144,107.103C68.474,112.054 59.609,114.504 48.476,114.504C43.354,114.504 38.745,114.285 34.659,113.822C30.574,113.383 25.929,112.48 20.685,111.188L20.685,93.897C30.27,97.128 38.964,98.762 46.744,98.762C56.085,98.762 60.731,96.055 60.731,90.592C60.731,87.873 58.84,85.678 55.011,83.958L37.757,76.605C31.343,73.727 26.611,70.24 23.563,66.106C20.466,61.936 18.954,57.156 18.954,51.693C18.954,44.047 22.149,37.889 28.55,33.206C34.916,28.56 43.439,26.232 54.024,26.232C57.499,26.232 61.413,26.536 65.852,27.097C70.242,27.695 74.498,28.426 78.583,29.329Z" style="fill:rgb(0,153,153);"/>
        <path d="M96.386,27.78L121.689,27.78L121.689,112.956L96.386,112.956L96.386,27.78Z" style="fill:rgb(0,153,153);"/>
        <path d="M203.206,27.78L203.206,43.523L165.612,43.523L165.612,62.411L198.219,62.411L198.219,76.605L165.612,76.605L165.612,96.433L203.974,96.433L203.974,112.956L141.26,112.956L141.26,27.78L203.206,27.78Z" style="fill:rgb(0,153,153);"/>
        <path d="M321.33,27.78L321.33,112.956L297.709,112.956L297.709,56.778L273.2,113.736L258.616,113.736L235.045,56.778L235.045,112.956L217.961,112.956L217.961,27.78L248.848,27.78L269.932,79.922L291.991,27.78L321.33,27.78Z" style="fill:rgb(0,153,153);"/>
        <path d="M402.812,27.78L402.812,43.523L365.423,43.523L365.423,62.411L398.03,62.411L398.03,76.605L365.423,76.605L365.423,96.433L403.58,96.433L403.58,112.956L340.866,112.956L340.866,27.78L402.812,27.78Z" style="fill:rgb(0,153,153);"/>
        <path d="M491.596,27.78L491.596,112.956L464.757,112.956L434.639,58.326L434.639,112.956L417.566,112.956L417.566,27.78L445.187,27.78L474.525,81.471L474.525,27.78L491.596,27.78Z" style="fill:rgb(0,153,153);"/>
    </g>
</svg>
