<?xml version="1.0" encoding="UTF-8" standalone="no"?>
<!DOCTYPE svg PUBLIC "-//W3C//DTD SVG 1.1//EN" "http://www.w3.org/Graphics/SVG/1.1/DTD/svg11.dtd">
<svg width="100%" height="100%" viewBox="0 0 284 66" version="1.1" xmlns="http://www.w3.org/2000/svg" xmlns:xlink="http://www.w3.org/1999/xlink" xml:space="preserve" xmlns:serif="http://www.serif.com/" style="fill-rule:evenodd;clip-rule:evenodd;stroke-linejoin:round;stroke-miterlimit:2;">
    <g transform="matrix(1,0,0,1,-8,-8.111)">
        <g id="tlk_logo">
            <g id="Bildmarke" transform="matrix(1,0,0,1,8,8)">
                <path id="Fill-48" d="M50.532,0.111L52.905,0.111C58.313,0.111 62.698,4.494 62.698,9.903L62.734,23.809C64.747,22.484 67.034,22.049 69.763,21.885C70.384,21.848 71.665,21.92 72.271,21.99L72.271,34.903L71.164,34.89C66.623,34.89 62.94,37.593 62.94,43.692C62.94,50.065 67.747,52.492 71.164,52.492L72.541,52.494L72.602,65.205C71.997,65.275 70.385,65.309 69.763,65.309C62.543,65.309 56.284,60.551 53.176,53.578C51.115,49.042 50.91,44.37 50.635,39.218C50.58,38.405 50.532,0.111 50.532,0.111ZM29.754,0.111L32.126,0.111C37.535,0.111 41.919,4.494 41.919,9.903L41.979,37.94C42.025,39.464 42.043,45.214 42.8,47.086C43.769,49.485 45.651,51.358 48.009,52.119L48.009,65.281C41.17,64.871 35.304,60.186 32.352,53.474C30.337,49.042 30.132,44.37 29.857,39.218C29.802,38.405 29.754,0.111 29.754,0.111ZM9.24,0.111L11.613,0.111C17.021,0.111 21.405,4.494 21.405,9.903L21.465,37.94C21.513,39.464 21.53,45.214 22.287,47.086C23.255,49.485 25.136,51.358 27.496,52.119L27.496,65.281C20.656,64.871 14.79,60.186 11.837,53.474C10.401,50.313 9.884,47.027 9.607,43.53C9.488,42.72 9.368,41.772 9.033,40.979C7.461,37.278 3.778,35.185 0,35.149L0,22.09C3.26,22.079 6.453,22.889 9.288,24.399L9.24,0.111Z" style="fill:rgb(95,105,113);"/>
            </g>
            <g id="Wortmarke" transform="matrix(1,0,0,1,89,41)">
                <path id="Fill-49" d="M11.899,4.739L7.882,4.739L7.882,19.359L4.642,19.359L4.642,4.739L0.467,4.739L0.467,1.887L12.159,1.887C12.159,2.794 12.055,3.858 11.899,4.739" style="fill:rgb(152,30,50);"/>
                <path id="Fill-50" d="M24.266,19.359L14.622,19.359L14.622,1.887L17.862,1.887L17.862,16.482L24.499,16.482C24.499,17.441 24.396,18.426 24.266,19.359" style="fill:rgb(152,30,50);"/>
                <path id="Fill-51" d="M34.039,9.431C36.32,12.541 38.368,15.652 40.494,19.205C39.431,19.412 38.108,19.516 37.124,19.516L32.043,11.789L30.331,13.812L30.331,19.359L27.143,19.359L27.143,1.887L30.331,1.887L30.331,9.587L30.487,9.587L36.735,1.731C37.616,1.731 39.276,1.86 40.131,2.042L34.039,9.431" style="fill:rgb(152,30,50);"/>
                <rect id="Fill-52" x="41.375" y="10.442" width="4.873" height="2.462" style="fill:rgb(152,30,50);"/>
                <path id="Fill-53" d="M58.562,4.739L54.544,4.739L54.544,19.359L51.304,19.359L51.304,4.739L47.129,4.739L47.129,1.887L58.821,1.887C58.821,2.794 58.718,3.858 58.562,4.739" style="fill:rgb(152,30,50);"/>
                <path id="Fill-54" d="M68.983,19.359L68.983,10.001C68.983,8.939 68.646,8.186 66.961,8.186C65.847,8.186 64.965,8.499 64.135,9.067L64.135,19.359L61.18,19.359L61.18,0.279C62.01,0.176 63.202,0.072 64.135,0.072L64.135,7.099L64.291,7.099C65.535,5.983 66.649,5.567 68.023,5.567C70.331,5.567 71.937,6.812 71.937,9.716L71.937,19.359L68.983,19.359" style="fill:rgb(152,30,50);"/>
                <path id="Fill-55" d="M85.316,13.346L77.693,13.346L77.693,13.579C77.693,15.782 78.394,16.82 80.961,16.82C82.179,16.82 83.734,16.455 84.538,15.989C84.822,16.767 85.082,17.855 85.213,18.765C84.098,19.309 82.179,19.62 80.909,19.62C76.761,19.62 74.453,17.338 74.453,12.774C74.453,7.901 76.891,5.567 80.234,5.567C83.786,5.567 85.419,7.797 85.419,11.349C85.419,11.919 85.394,12.724 85.316,13.346ZM77.72,11.349L82.412,11.349C82.437,11.194 82.437,10.753 82.437,10.597C82.437,8.679 81.685,7.823 80.184,7.823C78.628,7.823 77.745,8.886 77.72,11.349Z" style="fill:rgb(152,30,50);"/>
                <path id="Fill-56" d="M94.934,8.782C94.623,8.704 94.155,8.653 93.715,8.653C92.782,8.653 91.927,8.86 90.993,9.587L90.993,19.359L88.038,19.359L88.038,5.931C88.868,5.827 90.06,5.749 90.993,5.749L90.993,7.485L91.149,7.485C92.497,5.724 93.379,5.567 94.234,5.567C94.493,5.567 94.907,5.62 95.219,5.724C95.219,6.733 95.09,7.797 94.934,8.782" style="fill:rgb(152,30,50);"/>
                <path id="Fill-57" d="M112.224,19.359L112.224,9.974C112.224,8.886 111.783,8.186 110.384,8.186C109.398,8.186 108.62,8.499 107.895,9.067L107.895,19.359L104.94,19.359L104.94,10.001C104.94,8.86 104.499,8.186 103.15,8.186C102.243,8.186 101.388,8.499 100.61,9.067L100.61,19.359L97.654,19.359L97.654,5.931C98.484,5.827 99.677,5.749 100.61,5.749L100.61,7.099L100.766,7.099C102.01,5.983 102.943,5.567 104.266,5.567C105.614,5.567 106.702,6.035 107.299,7.331C108.646,5.983 109.812,5.567 111.265,5.567C113.469,5.567 115.18,6.708 115.18,9.716L115.18,19.359L112.224,19.359" style="fill:rgb(152,30,50);"/>
                <path id="Fill-58" d="M123.657,19.62C120.105,19.62 117.693,17.493 117.693,12.594C117.693,8.16 120.209,5.567 123.734,5.567C127.157,5.567 129.749,7.539 129.749,12.594C129.749,17.207 127.078,19.62 123.657,19.62ZM123.709,8.108C121.973,8.108 120.882,9.25 120.882,12.594C120.882,15.911 121.79,17.078 123.657,17.078C125.522,17.078 126.586,15.938 126.586,12.594C126.586,9.326 125.55,8.108 123.709,8.108Z" style="fill:rgb(152,30,50);"/>
                <path id="Fill-59" d="M145.483,19.62C140.402,19.62 137.81,16.43 137.81,10.597C137.81,4.323 141.102,1.628 145.718,1.628C147.376,1.628 149.398,1.913 150.668,2.457C150.616,3.314 150.384,4.479 150.15,5.412C149.062,4.843 147.351,4.479 145.898,4.479C143.047,4.479 141.285,5.724 141.285,10.726C141.285,15.134 142.839,16.767 145.535,16.767C146.235,16.767 147.273,16.663 147.817,16.455L147.817,12.878L145.174,12.878C145.018,12.049 144.914,11.013 144.914,10.104L151.007,10.104L151.007,18.453C149.787,19.074 147.531,19.62 145.483,19.62" style="fill:rgb(152,30,50);"/>
                <path id="Fill-60" d="M168.842,19.359L168.842,9.974C168.842,8.886 168.401,8.186 167.001,8.186C166.017,8.186 165.238,8.499 164.513,9.067L164.513,19.359L161.557,19.359L161.557,10.001C161.557,8.86 161.116,8.186 159.769,8.186C158.861,8.186 158.005,8.499 157.227,9.067L157.227,19.359L154.272,19.359L154.272,5.931C155.103,5.827 156.295,5.749 157.227,5.749L157.227,7.099L157.384,7.099C158.628,5.983 159.56,5.567 160.884,5.567C162.231,5.567 163.32,6.035 163.917,7.331C165.265,5.983 166.431,5.567 167.883,5.567C170.086,5.567 171.798,6.708 171.798,9.716L171.798,19.359L168.842,19.359" style="fill:rgb(152,30,50);"/>
                <path id="Fill-61" d="M180.481,19.62C178.458,19.62 176.618,19.151 175.218,18.063L175.218,0.279C176.048,0.176 177.24,0.072 178.174,0.072L178.174,6.995L178.329,6.995C179.418,5.905 180.43,5.567 181.699,5.567C184.447,5.567 186.572,7.356 186.572,12.075C186.572,16.897 184.318,19.62 180.481,19.62ZM180.791,8.186C179.807,8.186 178.898,8.499 178.174,9.12L178.174,16.482C178.718,16.87 179.547,17.053 180.325,17.053C182.478,17.053 183.41,15.808 183.41,12.36C183.41,9.12 182.503,8.186 180.791,8.186Z" style="fill:rgb(152,30,50);"/>
                <path id="Fill-62" d="M199.225,19.359L199.225,11.712L192.536,11.712L192.536,19.359L189.295,19.359L189.295,1.887L192.536,1.887L192.536,8.809L199.225,8.809L199.225,1.887L202.465,1.887L202.465,19.359L199.225,19.359" style="fill:rgb(152,30,50);"/>
            </g>
        </g>
    </g>
</svg>
